<svg xmlns="http://www.w3.org/2000/svg" xmlns:xlink="http://www.w3.org/1999/xlink" width="285" zoomAndPan="magnify" viewBox="0 0 213.75 213.75" height="285" preserveAspectRatio="xMidYMid meet" version="1.0"><defs><clipPath id="999da7fd32"><path d="M 0 0 L 213.5 0 L 213.5 213.5 L 0 213.5 Z M 0 0 " clip-rule="nonzero"/></clipPath><clipPath id="6fe1667096"><path d="M 33.703125 39.019531 L 179.78125 39.019531 L 179.78125 171 L 33.703125 171 Z M 33.703125 39.019531 " clip-rule="nonzero"/></clipPath></defs><g clip-path="url(#999da7fd32)"><path fill="#fcfcfc" d="M 106.714844 0 C 47.871094 0 0 47.875 0 106.714844 C 0 165.558594 47.871094 213.429688 106.714844 213.429688 C 165.554688 213.429688 213.429688 165.558594 213.429688 106.714844 C 213.429688 47.875 165.554688 0 106.714844 0 Z M 106.714844 210.648438 C 49.40625 210.648438 2.78125 164.023438 2.78125 106.71875 C 2.78125 49.40625 49.40625 2.785156 106.714844 2.785156 C 164.023438 2.785156 210.648438 49.410156 210.648438 106.71875 C 210.648438 164.023438 164.023438 210.648438 106.714844 210.648438 Z M 106.714844 210.648438 " fill-opacity="1" fill-rule="nonzero"/></g><path fill="#fcfcfc" d="M 106.714844 8.332031 C 52.464844 8.332031 8.332031 52.46875 8.332031 106.714844 C 8.332031 160.964844 52.464844 205.101562 106.714844 205.101562 C 160.964844 205.101562 205.097656 160.964844 205.097656 106.714844 C 205.097656 52.46875 160.964844 8.332031 106.714844 8.332031 Z M 106.714844 8.332031 " fill-opacity="1" fill-rule="nonzero"/><g clip-path="url(#6fe1667096)"><path fill="#4a4a48" d="M 155.789062 101.101562 C 155.789062 102.78125 153.234375 102.78125 153.234375 101.101562 L 153.234375 100.199219 C 153.234375 98.53125 155.789062 98.53125 155.789062 100.199219 Z M 162.558594 101.101562 C 162.558594 102.78125 160.011719 102.78125 160.011719 101.101562 L 160.011719 100.199219 C 160.011719 98.53125 162.558594 98.53125 162.558594 100.199219 Z M 149.015625 101.101562 C 149.015625 102.78125 146.46875 102.78125 146.46875 101.101562 L 146.46875 100.199219 C 146.46875 98.53125 149.015625 98.53125 149.015625 100.199219 Z M 162.558594 117.171875 C 162.558594 118.851562 160.011719 118.851562 160.011719 117.171875 L 160.011719 116.269531 C 160.011719 114.589844 162.558594 114.589844 162.558594 116.269531 Z M 149.015625 117.171875 C 149.015625 118.851562 146.46875 118.851562 146.46875 117.171875 L 146.46875 116.269531 C 146.46875 114.589844 149.015625 114.589844 149.015625 116.269531 Z M 155.789062 117.171875 C 155.789062 118.851562 153.234375 118.851562 153.234375 117.171875 L 153.234375 116.269531 C 153.234375 114.589844 155.789062 114.589844 155.789062 116.269531 Z M 149.015625 132.695312 C 149.015625 134.375 146.46875 134.375 146.46875 132.695312 L 146.46875 131.792969 C 146.46875 130.117188 149.015625 130.117188 149.015625 131.792969 Z M 155.789062 132.695312 C 155.789062 134.375 153.234375 134.375 153.234375 132.695312 L 153.234375 131.792969 C 153.234375 130.117188 155.789062 130.117188 155.789062 131.792969 Z M 162.558594 132.695312 C 162.558594 134.375 160.011719 134.375 160.011719 132.695312 L 160.011719 131.792969 C 160.011719 130.117188 162.558594 130.117188 162.558594 131.792969 Z M 154.519531 73.730469 C 161.25 73.730469 167.371094 74.699219 171.824219 76.253906 C 175.742188 77.617188 178.457031 79.503906 179.359375 81.71875 C 179.546875 82.023438 179.703125 82.125 179.671875 82.671875 L 179.671875 100.660156 L 179.683594 100.660156 C 179.683594 100.9375 179.652344 101.21875 179.597656 101.492188 C 179.597656 101.554688 179.6875 101.644531 179.671875 102.0625 L 179.671875 116.023438 L 179.683594 116.023438 L 179.671875 132.246094 L 179.683594 132.246094 C 179.683594 135.15625 176.683594 137.648438 171.824219 139.347656 C 162.214844 142.699219 146.8125 142.699219 137.203125 139.347656 C 132.34375 137.648438 129.34375 135.15625 129.34375 132.246094 L 129.34375 101.953125 C 129.34375 101.789062 129.371094 101.636719 129.425781 101.492188 C 129.371094 101.21875 129.34375 100.9375 129.34375 100.660156 L 129.34375 82.566406 C 129.34375 82.242188 129.472656 81.941406 129.667969 81.71875 C 130.570312 79.507812 133.28125 77.617188 137.203125 76.253906 C 141.652344 74.699219 147.777344 73.730469 154.519531 73.730469 Z M 177.136719 87.707031 C 168.292969 94.6875 140.753906 94.6875 131.890625 87.714844 L 131.890625 100.660156 C 131.890625 102.636719 135.078125 104.316406 138.035156 105.347656 C 147.082031 108.507812 161.941406 108.507812 170.996094 105.347656 C 173.949219 104.316406 177.140625 102.636719 177.140625 100.660156 L 177.140625 87.707031 Z M 170.992188 78.644531 C 161.941406 75.496094 147.082031 75.496094 138.03125 78.644531 C 130.253906 81.363281 129.484375 85.058594 138.03125 88.039062 C 147.082031 91.191406 161.941406 91.191406 170.992188 88.039062 C 179.539062 85.050781 178.769531 81.363281 170.992188 78.644531 Z M 177.136719 105.019531 C 168.292969 112.003906 140.753906 112.003906 131.890625 105.019531 L 131.890625 116.023438 C 131.890625 117.722656 134.238281 119.394531 138.035156 120.722656 C 147.082031 123.871094 161.941406 123.871094 170.996094 120.722656 C 174.792969 119.394531 177.140625 117.722656 177.140625 116.023438 L 177.140625 105.019531 Z M 177.136719 120.386719 C 168.292969 127.367188 140.753906 127.367188 131.890625 120.394531 L 131.890625 132.246094 C 131.890625 133.945312 134.238281 135.617188 138.035156 136.945312 C 147.082031 140.097656 161.941406 140.097656 170.996094 136.945312 C 174.792969 135.617188 177.140625 133.945312 177.140625 132.246094 L 177.140625 120.386719 Z M 93.851562 133.484375 C 92.171875 133.484375 92.171875 130.9375 93.851562 130.9375 L 99.523438 130.9375 C 101.203125 130.9375 101.203125 133.484375 99.523438 133.484375 Z M 114.023438 133.484375 C 112.34375 133.484375 112.34375 130.9375 114.023438 130.9375 L 119.695312 130.9375 C 121.375 130.9375 121.375 133.484375 119.695312 133.484375 Z M 103.933594 133.484375 C 102.265625 133.484375 102.265625 130.9375 103.933594 130.9375 L 109.617188 130.9375 C 111.296875 130.9375 111.296875 133.484375 109.617188 133.484375 Z M 70.441406 125.832031 L 86.800781 125.832031 C 88.363281 125.832031 89.644531 127.113281 89.644531 128.679688 L 89.644531 135.742188 C 89.644531 137.304688 88.371094 138.578125 86.800781 138.578125 L 70.441406 138.578125 C 68.878906 138.578125 67.59375 137.292969 67.59375 135.742188 L 67.59375 128.679688 C 67.59375 127.117188 68.878906 125.832031 70.441406 125.832031 Z M 86.796875 128.386719 L 70.4375 128.386719 C 70.273438 128.386719 70.148438 128.515625 70.148438 128.679688 L 70.148438 135.742188 C 70.148438 135.90625 70.273438 136.03125 70.4375 136.03125 L 86.796875 136.03125 C 86.960938 136.03125 87.097656 135.894531 87.097656 135.742188 L 87.097656 128.679688 C 87.097656 128.515625 86.96875 128.386719 86.796875 128.386719 Z M 66.058594 121.054688 L 122.515625 121.054688 C 124.890625 121.054688 126.824219 122.992188 126.824219 125.371094 L 126.824219 139.046875 C 126.824219 141.425781 124.890625 143.355469 122.515625 143.355469 L 66.058594 143.355469 C 63.679688 143.355469 61.742188 141.421875 61.742188 139.046875 L 61.742188 125.371094 C 61.742188 122.996094 63.683594 121.054688 66.058594 121.054688 Z M 122.515625 123.613281 L 66.058594 123.613281 C 65.09375 123.613281 64.296875 124.40625 64.296875 125.375 L 64.296875 139.046875 C 64.296875 140.011719 65.089844 140.808594 66.058594 140.808594 L 122.515625 140.808594 C 123.480469 140.808594 124.277344 140.015625 124.277344 139.046875 L 124.277344 125.371094 C 124.273438 124.40625 123.480469 123.613281 122.515625 123.613281 Z M 93.851562 105.78125 C 92.171875 105.78125 92.171875 103.222656 93.851562 103.222656 L 99.523438 103.222656 C 101.203125 103.222656 101.203125 105.78125 99.523438 105.78125 Z M 114.023438 105.78125 C 112.34375 105.78125 112.34375 103.222656 114.023438 103.222656 L 119.695312 103.222656 C 121.375 103.222656 121.375 105.78125 119.695312 105.78125 Z M 103.933594 105.78125 C 102.265625 105.78125 102.265625 103.222656 103.933594 103.222656 L 109.617188 103.222656 C 111.296875 103.222656 111.296875 105.78125 109.617188 105.78125 Z M 70.441406 98.128906 L 86.800781 98.128906 C 88.363281 98.128906 89.644531 99.414062 89.644531 100.972656 L 89.644531 108.027344 C 89.644531 109.601562 88.371094 110.875 86.800781 110.875 L 70.441406 110.875 C 68.878906 110.875 67.59375 109.589844 67.59375 108.027344 L 67.59375 100.972656 C 67.59375 99.402344 68.878906 98.128906 70.441406 98.128906 Z M 86.796875 100.679688 L 70.4375 100.679688 C 70.273438 100.679688 70.148438 100.816406 70.148438 100.976562 L 70.148438 108.03125 C 70.148438 108.195312 70.273438 108.332031 70.4375 108.332031 L 86.796875 108.332031 C 86.960938 108.332031 87.097656 108.195312 87.097656 108.03125 L 87.097656 100.976562 C 87.097656 100.800781 86.96875 100.679688 86.796875 100.679688 Z M 66.058594 93.351562 L 122.515625 93.351562 C 124.890625 93.351562 126.824219 95.292969 126.824219 97.667969 L 126.824219 111.335938 C 126.824219 113.714844 124.890625 115.65625 122.515625 115.65625 L 66.058594 115.65625 C 63.679688 115.65625 61.742188 113.714844 61.742188 111.335938 L 61.742188 97.667969 C 61.742188 95.292969 63.683594 93.351562 66.058594 93.351562 Z M 122.515625 95.898438 L 66.058594 95.898438 C 65.09375 95.898438 64.296875 96.691406 64.296875 97.667969 L 64.296875 111.335938 C 64.296875 112.3125 65.089844 113.109375 66.058594 113.109375 L 122.515625 113.109375 C 123.480469 113.109375 124.277344 112.316406 124.277344 111.335938 L 124.277344 97.667969 C 124.273438 96.691406 123.480469 95.898438 122.515625 95.898438 Z M 93.851562 78.066406 C 92.171875 78.066406 92.171875 75.519531 93.851562 75.519531 L 99.523438 75.519531 C 101.203125 75.519531 101.203125 78.066406 99.523438 78.066406 Z M 114.023438 78.066406 C 112.34375 78.066406 112.34375 75.519531 114.023438 75.519531 L 119.695312 75.519531 C 121.375 75.519531 121.375 78.066406 119.695312 78.066406 Z M 103.933594 78.066406 C 102.265625 78.066406 102.265625 75.519531 103.933594 75.519531 L 109.617188 75.519531 C 111.296875 75.519531 111.296875 78.066406 109.617188 78.066406 Z M 70.441406 70.425781 L 86.800781 70.425781 C 88.363281 70.425781 89.644531 71.707031 89.644531 73.261719 L 89.644531 80.324219 C 89.644531 81.886719 88.371094 83.171875 86.800781 83.171875 L 70.441406 83.171875 C 68.878906 83.171875 67.59375 81.886719 67.59375 80.324219 L 67.59375 73.261719 C 67.59375 71.699219 68.878906 70.425781 70.441406 70.425781 Z M 86.796875 72.972656 L 70.4375 72.972656 C 70.273438 72.972656 70.148438 73.109375 70.148438 73.265625 L 70.148438 80.328125 C 70.148438 80.492188 70.273438 80.617188 70.4375 80.617188 L 86.796875 80.617188 C 86.960938 80.617188 87.097656 80.480469 87.097656 80.328125 L 87.097656 73.265625 C 87.097656 73.097656 86.96875 72.972656 86.796875 72.972656 Z M 66.058594 65.648438 L 122.515625 65.648438 C 124.890625 65.648438 126.824219 67.582031 126.824219 69.957031 L 126.824219 83.632812 C 126.824219 86.011719 124.890625 87.949219 122.515625 87.949219 L 66.058594 87.949219 C 63.679688 87.949219 61.742188 86.011719 61.742188 83.632812 L 61.742188 69.957031 C 61.742188 67.578125 63.683594 65.648438 66.058594 65.648438 Z M 122.515625 68.195312 L 66.058594 68.195312 C 65.09375 68.195312 64.296875 68.988281 64.296875 69.957031 L 64.296875 83.632812 C 64.296875 84.597656 65.089844 85.394531 66.058594 85.394531 L 122.515625 85.394531 C 123.480469 85.394531 124.277344 84.601562 124.277344 83.632812 L 124.277344 69.957031 C 124.273438 68.992188 123.480469 68.195312 122.515625 68.195312 Z M 147.398438 48.648438 C 154 48.648438 157.324219 56.667969 152.65625 61.339844 C 147.984375 66.011719 139.964844 62.679688 139.964844 56.082031 C 139.964844 51.980469 143.296875 48.648438 147.398438 48.648438 Z M 150.851562 52.628906 C 147.789062 49.558594 142.519531 51.746094 142.519531 56.082031 C 142.519531 60.417969 147.789062 62.605469 150.851562 59.53125 C 152.757812 57.628906 152.757812 54.535156 150.851562 52.628906 Z M 147.398438 157.972656 C 151.734375 157.972656 153.921875 152.707031 150.851562 149.644531 C 147.789062 146.570312 142.519531 148.757812 142.519531 153.09375 C 142.519531 155.785156 144.707031 157.972656 147.398438 157.972656 Z M 152.65625 158.351562 C 147.984375 163.023438 139.964844 159.691406 139.964844 153.09375 C 139.964844 146.492188 147.984375 143.167969 152.65625 147.835938 C 155.558594 150.734375 155.558594 155.441406 152.65625 158.351562 Z M 41.175781 157.972656 C 45.511719 157.972656 47.6875 152.707031 44.625 149.644531 C 41.554688 146.570312 36.289062 148.757812 36.289062 153.09375 C 36.285156 155.785156 38.472656 157.972656 41.175781 157.972656 Z M 46.421875 158.351562 C 41.75 163.023438 33.742188 159.691406 33.742188 153.09375 C 33.742188 146.492188 41.75 143.167969 46.421875 147.835938 C 49.328125 150.734375 49.328125 155.441406 46.421875 158.351562 Z M 94.285156 167.59375 C 98.621094 167.59375 100.808594 162.324219 97.738281 159.257812 C 94.664062 156.195312 89.398438 158.378906 89.398438 162.71875 C 89.398438 165.40625 91.585938 167.59375 94.285156 167.59375 Z M 99.542969 167.960938 C 94.871094 172.632812 86.851562 169.308594 86.851562 162.714844 C 86.851562 156.113281 94.871094 152.789062 99.542969 157.457031 C 102.441406 160.355469 102.441406 165.0625 99.542969 167.960938 Z M 41.175781 48.648438 C 47.769531 48.648438 51.089844 56.667969 46.421875 61.339844 C 41.75 66.011719 33.742188 62.679688 33.742188 56.082031 C 33.742188 51.980469 37.0625 48.648438 41.175781 48.648438 Z M 44.621094 52.628906 C 41.550781 49.558594 36.285156 51.746094 36.285156 56.082031 C 36.285156 60.417969 41.554688 62.605469 44.621094 59.53125 C 46.53125 57.628906 46.53125 54.535156 44.621094 52.628906 Z M 94.285156 39.027344 C 100.878906 39.027344 104.210938 47.046875 99.542969 51.71875 C 94.871094 56.390625 86.851562 53.0625 86.851562 46.460938 C 86.851562 42.359375 90.183594 39.027344 94.285156 39.027344 Z M 97.738281 43.011719 C 94.664062 39.9375 89.398438 42.125 89.398438 46.460938 C 89.398438 50.796875 94.667969 52.984375 97.738281 49.914062 C 99.640625 48.007812 99.640625 44.914062 97.738281 43.011719 Z M 116.027344 154.195312 C 115.324219 154.195312 114.753906 153.625 114.753906 152.921875 L 114.753906 145.035156 L 117.296875 145.035156 L 117.296875 151.648438 L 137.957031 151.648438 C 139.628906 151.648438 139.628906 154.191406 137.957031 154.191406 L 116.027344 154.191406 Z M 50.613281 154.195312 C 48.933594 154.195312 48.933594 151.648438 50.613281 151.648438 L 71.261719 151.648438 L 71.261719 145.039062 L 73.816406 145.039062 L 73.816406 152.925781 C 73.816406 153.628906 73.242188 154.199219 72.535156 154.199219 L 50.613281 154.199219 Z M 50.613281 57.355469 C 48.933594 57.355469 48.933594 54.808594 50.613281 54.808594 L 72.535156 54.808594 C 73.242188 54.808594 73.820312 55.378906 73.820312 56.085938 L 73.820312 63.5 L 71.265625 63.5 L 71.265625 57.355469 Z M 114.757812 56.082031 C 114.757812 55.378906 115.328125 54.808594 116.03125 54.808594 L 137.964844 54.808594 C 139.632812 54.808594 139.632812 57.351562 137.964844 57.351562 L 117.304688 57.351562 L 117.304688 63.496094 L 114.757812 63.496094 Z M 73.816406 88.851562 L 73.816406 92.203125 L 71.261719 92.203125 L 71.261719 88.851562 Z M 73.816406 117.023438 L 73.816406 119.84375 L 71.261719 119.84375 L 71.261719 117.023438 Z M 95.558594 56.082031 L 95.558594 63.496094 L 93.015625 63.496094 L 93.015625 56.082031 Z M 95.558594 145.035156 L 95.558594 152.921875 L 93.015625 152.921875 L 93.015625 145.035156 Z M 117.300781 88.851562 L 117.300781 92.203125 L 114.757812 92.203125 L 114.757812 88.851562 Z M 117.300781 117.023438 L 117.300781 119.84375 L 114.757812 119.84375 L 114.757812 117.023438 Z M 117.300781 117.023438 " fill-opacity="1" fill-rule="nonzero"/></g></svg>