<svg xmlns="http://www.w3.org/2000/svg" xmlns:xlink="http://www.w3.org/1999/xlink" zoomAndPan="magnify" preserveAspectRatio="xMidYMid meet" version="1.0" viewBox="97.44 69 1397.56 546.02"><defs><g/><clipPath id="cdd4755f03"><path d="M 1243.4375 234.445312 L 1406.832031 234.445312 L 1406.832031 397.839844 L 1243.4375 397.839844 Z M 1243.4375 234.445312 " clip-rule="nonzero"/></clipPath><clipPath id="15db2b3741"><path d="M 1281.671875 234.445312 L 1368.597656 234.445312 C 1389.714844 234.445312 1406.832031 251.5625 1406.832031 272.679688 L 1406.832031 359.605469 C 1406.832031 380.722656 1389.714844 397.839844 1368.597656 397.839844 L 1281.671875 397.839844 C 1260.554688 397.839844 1243.4375 380.722656 1243.4375 359.605469 L 1243.4375 272.679688 C 1243.4375 251.5625 1260.554688 234.445312 1281.671875 234.445312 Z M 1281.671875 234.445312 " clip-rule="nonzero"/></clipPath><clipPath id="c5133c3d7d"><path d="M 1425.628906 159.824219 L 1488.890625 159.824219 L 1488.890625 223.085938 L 1425.628906 223.085938 Z M 1425.628906 159.824219 " clip-rule="nonzero"/></clipPath><clipPath id="24ee730bec"><path d="M 1457.261719 159.824219 C 1439.792969 159.824219 1425.628906 173.984375 1425.628906 191.453125 C 1425.628906 208.921875 1439.792969 223.085938 1457.261719 223.085938 C 1474.730469 223.085938 1488.890625 208.921875 1488.890625 191.453125 C 1488.890625 173.984375 1474.730469 159.824219 1457.261719 159.824219 Z M 1457.261719 159.824219 " clip-rule="nonzero"/></clipPath><clipPath id="c817b478ce"><path d="M 1041.375 278.757812 L 1153.824219 278.757812 L 1153.824219 391.203125 L 1041.375 391.203125 Z M 1041.375 278.757812 " clip-rule="nonzero"/></clipPath><clipPath id="84b2e149ce"><path d="M 1097.695312 278.757812 C 1066.589844 278.757812 1041.375 303.96875 1041.375 335.074219 C 1041.375 366.175781 1066.589844 391.390625 1097.695312 391.390625 C 1128.796875 391.390625 1154.011719 366.175781 1154.011719 335.074219 C 1154.011719 303.96875 1128.796875 278.757812 1097.695312 278.757812 Z M 1097.695312 278.757812 " clip-rule="nonzero"/></clipPath><clipPath id="48ca8ec5ae"><path d="M 1016 69 L 1495 69 L 1495 600.484375 L 1016 600.484375 Z M 1016 69 " clip-rule="nonzero"/></clipPath><clipPath id="91051766e8"><path d="M 593.070312 424.347656 L 701.015625 424.347656 L 701.015625 590.019531 L 593.070312 590.019531 Z M 593.070312 424.347656 " clip-rule="nonzero"/></clipPath><clipPath id="c4ccf163d8"><path d="M 593.070312 472.972656 C 593.070312 446.128906 617.304688 424.371094 647.199219 424.371094 C 677.097656 424.371094 701.332031 446.128906 701.332031 472.972656 L 701.332031 541.417969 C 701.332031 568.261719 677.097656 590.019531 647.199219 590.019531 C 617.304688 590.019531 593.070312 568.261719 593.070312 541.417969 Z M 593.070312 472.972656 " clip-rule="nonzero"/></clipPath><clipPath id="fca371715c"><path d="M 583.203125 278.757812 L 700.144531 278.757812 L 700.144531 395.703125 L 583.203125 395.703125 Z M 583.203125 278.757812 " clip-rule="nonzero"/></clipPath><clipPath id="ad44961a88"><path d="M 641.675781 278.757812 C 609.378906 278.757812 583.203125 304.933594 583.203125 337.230469 C 583.203125 369.523438 609.378906 395.703125 641.675781 395.703125 C 673.96875 395.703125 700.144531 369.523438 700.144531 337.230469 C 700.144531 304.933594 673.96875 278.757812 641.675781 278.757812 Z M 641.675781 278.757812 " clip-rule="nonzero"/></clipPath><clipPath id="82298e2e1a"><path d="M 782 352 L 850 352 L 850 393 L 782 393 Z M 782 352 " clip-rule="nonzero"/></clipPath><clipPath id="e350b86116"><path d="M 636.929688 284.410156 L 756.792969 115.765625 L 948.660156 252.132812 L 828.792969 420.777344 Z M 636.929688 284.410156 " clip-rule="nonzero"/></clipPath><clipPath id="757e569d03"><path d="M 948.660156 252.390625 L 828.796875 421.035156 L 636.929688 284.667969 L 756.796875 116.023438 Z M 948.660156 252.390625 " clip-rule="nonzero"/></clipPath><clipPath id="45f61f6435"><path d="M 786 305 L 868 305 L 868 382 L 786 382 Z M 786 305 " clip-rule="nonzero"/></clipPath><clipPath id="47cfbdbcb3"><path d="M 636.929688 284.410156 L 756.792969 115.765625 L 948.660156 252.132812 L 828.792969 420.777344 Z M 636.929688 284.410156 " clip-rule="nonzero"/></clipPath><clipPath id="5b0fc48ee5"><path d="M 948.660156 252.390625 L 828.796875 421.035156 L 636.929688 284.667969 L 756.796875 116.023438 Z M 948.660156 252.390625 " clip-rule="nonzero"/></clipPath><clipPath id="0092da2cb6"><path d="M 792 245 L 860 245 L 860 287 L 792 287 Z M 792 245 " clip-rule="nonzero"/></clipPath><clipPath id="fc4c81f733"><path d="M 636.929688 284.410156 L 756.792969 115.765625 L 948.660156 252.132812 L 828.792969 420.777344 Z M 636.929688 284.410156 " clip-rule="nonzero"/></clipPath><clipPath id="b0c9376ce9"><path d="M 948.660156 252.390625 L 828.796875 421.035156 L 636.929688 284.667969 L 756.796875 116.023438 Z M 948.660156 252.390625 " clip-rule="nonzero"/></clipPath><clipPath id="9fd4298fe0"><path d="M 717 152 L 811 152 L 811 235 L 717 235 Z M 717 152 " clip-rule="nonzero"/></clipPath><clipPath id="bb90ea57dc"><path d="M 636.929688 284.410156 L 756.792969 115.765625 L 948.660156 252.132812 L 828.792969 420.777344 Z M 636.929688 284.410156 " clip-rule="nonzero"/></clipPath><clipPath id="7cb001b65c"><path d="M 948.660156 252.390625 L 828.796875 421.035156 L 636.929688 284.667969 L 756.796875 116.023438 Z M 948.660156 252.390625 " clip-rule="nonzero"/></clipPath><clipPath id="655661a823"><path d="M 798 198 L 879 198 L 879 276 L 798 276 Z M 798 198 " clip-rule="nonzero"/></clipPath><clipPath id="f64d8248bd"><path d="M 636.929688 284.410156 L 756.792969 115.765625 L 948.660156 252.132812 L 828.792969 420.777344 Z M 636.929688 284.410156 " clip-rule="nonzero"/></clipPath><clipPath id="c8cd802313"><path d="M 948.660156 252.390625 L 828.796875 421.035156 L 636.929688 284.667969 L 756.796875 116.023438 Z M 948.660156 252.390625 " clip-rule="nonzero"/></clipPath><clipPath id="2951747a3f"><path d="M 730 250 L 799 250 L 799 292 L 730 292 Z M 730 250 " clip-rule="nonzero"/></clipPath><clipPath id="4ef5243a5a"><path d="M 636.929688 284.410156 L 756.792969 115.765625 L 948.660156 252.132812 L 828.792969 420.777344 Z M 636.929688 284.410156 " clip-rule="nonzero"/></clipPath><clipPath id="09d874c91d"><path d="M 948.660156 252.390625 L 828.796875 421.035156 L 636.929688 284.667969 L 756.796875 116.023438 Z M 948.660156 252.390625 " clip-rule="nonzero"/></clipPath><clipPath id="557a8e5fc5"><path d="M 708 258 L 798 258 L 798 341 L 708 341 Z M 708 258 " clip-rule="nonzero"/></clipPath><clipPath id="23a3320882"><path d="M 636.929688 284.410156 L 756.792969 115.765625 L 948.660156 252.132812 L 828.792969 420.777344 Z M 636.929688 284.410156 " clip-rule="nonzero"/></clipPath><clipPath id="b87d36ed20"><path d="M 948.660156 252.390625 L 828.796875 421.035156 L 636.929688 284.667969 L 756.796875 116.023438 Z M 948.660156 252.390625 " clip-rule="nonzero"/></clipPath><clipPath id="3b67f47dc9"><path d="M 740 144 L 804 144 L 804 185 L 740 185 Z M 740 144 " clip-rule="nonzero"/></clipPath><clipPath id="8858d1b3fa"><path d="M 636.929688 284.410156 L 756.792969 115.765625 L 948.660156 252.132812 L 828.792969 420.777344 Z M 636.929688 284.410156 " clip-rule="nonzero"/></clipPath><clipPath id="cd6ecd65fc"><path d="M 948.660156 252.390625 L 828.796875 421.035156 L 636.929688 284.667969 L 756.796875 116.023438 Z M 948.660156 252.390625 " clip-rule="nonzero"/></clipPath><clipPath id="d98ee59a8a"><path d="M 386.246094 238.601562 L 447.796875 238.601562 L 447.796875 300.152344 L 386.246094 300.152344 Z M 386.246094 238.601562 " clip-rule="nonzero"/></clipPath><clipPath id="3bd578de1f"><path d="M 417.019531 238.601562 C 400.023438 238.601562 386.246094 252.382812 386.246094 269.378906 C 386.246094 286.375 400.023438 300.152344 417.019531 300.152344 C 434.015625 300.152344 447.796875 286.375 447.796875 269.378906 C 447.796875 252.382812 434.015625 238.601562 417.019531 238.601562 Z M 417.019531 238.601562 " clip-rule="nonzero"/></clipPath><clipPath id="daf8f5bb34"><path d="M 386.246094 238.601562 L 447.714844 238.601562 L 447.714844 300.074219 L 386.246094 300.074219 Z M 386.246094 238.601562 " clip-rule="nonzero"/></clipPath><clipPath id="0f24119dbf"><path d="M 417.015625 238.601562 C 400.023438 238.601562 386.246094 252.378906 386.246094 269.375 C 386.246094 286.367188 400.023438 300.144531 417.015625 300.144531 C 434.011719 300.144531 447.785156 286.367188 447.785156 269.375 C 447.785156 252.378906 434.011719 238.601562 417.015625 238.601562 Z M 417.015625 238.601562 " clip-rule="nonzero"/></clipPath><clipPath id="ce88e1ebd3"><path d="M 334 336.289062 L 395.550781 336.289062 L 395.550781 397.839844 L 334 397.839844 Z M 334 336.289062 " clip-rule="nonzero"/></clipPath><clipPath id="06fc60dc1e"><path d="M 364.777344 336.289062 C 347.78125 336.289062 334 350.066406 334 367.0625 C 334 384.0625 347.78125 397.839844 364.777344 397.839844 C 381.773438 397.839844 395.550781 384.0625 395.550781 367.0625 C 395.550781 350.066406 381.773438 336.289062 364.777344 336.289062 Z M 364.777344 336.289062 " clip-rule="nonzero"/></clipPath><clipPath id="57e7c3af8c"><path d="M 334 336.289062 L 395.472656 336.289062 L 395.472656 397.761719 L 334 397.761719 Z M 334 336.289062 " clip-rule="nonzero"/></clipPath><clipPath id="cab09d503c"><path d="M 364.773438 336.289062 C 347.777344 336.289062 334 350.066406 334 367.058594 C 334 384.054688 347.777344 397.828125 364.773438 397.828125 C 381.765625 397.828125 395.542969 384.054688 395.542969 367.058594 C 395.542969 350.066406 381.765625 336.289062 364.773438 336.289062 Z M 364.773438 336.289062 " clip-rule="nonzero"/></clipPath><clipPath id="ee9e3fb9d1"><path d="M 329.722656 242.195312 L 372.417969 242.195312 L 372.417969 284.894531 L 329.722656 284.894531 Z M 329.722656 242.195312 " clip-rule="nonzero"/></clipPath><clipPath id="131f8ba615"><path d="M 351.070312 242.195312 C 339.28125 242.195312 329.722656 251.753906 329.722656 263.546875 C 329.722656 275.335938 339.28125 284.894531 351.070312 284.894531 C 362.863281 284.894531 372.417969 275.335938 372.417969 263.546875 C 372.417969 251.753906 362.863281 242.195312 351.070312 242.195312 Z M 351.070312 242.195312 " clip-rule="nonzero"/></clipPath><clipPath id="56a656c824"><path d="M 329.722656 242.195312 L 372.417969 242.195312 L 372.417969 284.890625 L 329.722656 284.890625 Z M 329.722656 242.195312 " clip-rule="nonzero"/></clipPath><clipPath id="3a743e5363"><path d="M 351.070312 242.195312 C 339.28125 242.195312 329.722656 251.753906 329.722656 263.542969 C 329.722656 275.335938 339.28125 284.890625 351.070312 284.890625 C 362.859375 284.890625 372.417969 275.335938 372.417969 263.542969 C 372.417969 251.753906 362.859375 242.195312 351.070312 242.195312 Z M 351.070312 242.195312 " clip-rule="nonzero"/></clipPath></defs><g clip-path="url(#cdd4755f03)"><g clip-path="url(#15db2b3741)"><path fill="#fcfcfc" d="M 1243.4375 234.445312 L 1406.832031 234.445312 L 1406.832031 397.839844 L 1243.4375 397.839844 Z M 1243.4375 234.445312 " fill-opacity="1" fill-rule="nonzero"/></g></g><g clip-path="url(#c5133c3d7d)"><g clip-path="url(#24ee730bec)"><path fill="#fcfcfc" d="M 1425.628906 159.824219 L 1488.890625 159.824219 L 1488.890625 223.085938 L 1425.628906 223.085938 Z M 1425.628906 159.824219 " fill-opacity="1" fill-rule="nonzero"/></g></g><g fill="#ffffff" fill-opacity="1"><g transform="translate(1429.752713, 377.083517)"><g><path d="M 24.3125 1.4375 C 28.019531 1.4375 31.515625 0.722656 34.796875 -0.703125 C 38.085938 -2.140625 40.765625 -4.765625 42.828125 -8.578125 C 44.898438 -12.390625 45.9375 -17.796875 45.9375 -24.796875 C 46.351562 -35.816406 46.5625 -47.894531 46.5625 -61.03125 C 46.5625 -84.65625 46.300781 -101.394531 45.78125 -111.25 C 45.351562 -116.34375 43.257812 -120.554688 39.5 -123.890625 C 35.738281 -127.222656 31.101562 -128.890625 25.59375 -128.890625 C 20.082031 -128.890625 15.578125 -127.140625 12.078125 -123.640625 C 8.578125 -120.148438 6.566406 -115.597656 6.046875 -109.984375 C 5.828125 -108.390625 5.664062 -106.820312 5.5625 -105.28125 C 5.457031 -103.75 5.378906 -101.816406 5.328125 -99.484375 C 5.273438 -97.160156 5.25 -93.773438 5.25 -89.328125 L 5.71875 -28.296875 L 5.5625 -24 C 5.5625 -16.375 6.882812 -10.226562 9.53125 -5.5625 C 12.1875 -0.894531 17.113281 1.4375 24.3125 1.4375 Z M 24.3125 1.4375 "/></g></g></g><g fill="#25248e" fill-opacity="1"><g transform="translate(1267.125709, 371.985307)"><g><path d="M 14.078125 -2.109375 C 9.867188 -4.148438 6.492188 -7.03125 3.953125 -10.75 C 1.421875 -14.476562 -0.03125 -18.582031 -0.40625 -23.0625 C -0.78125 -27.539062 0 -31.828125 1.9375 -35.921875 L 32.53125 -100.8125 C 34.789062 -105.664062 38.023438 -109.332031 42.234375 -111.8125 C 46.441406 -114.289062 50.941406 -115.554688 55.734375 -115.609375 C 60.535156 -115.671875 65.039062 -114.488281 69.25 -112.0625 C 73.457031 -109.632812 76.75 -105.9375 79.125 -100.96875 L 110.03125 -35.921875 C 112.082031 -31.828125 112.890625 -27.539062 112.453125 -23.0625 C 112.023438 -18.582031 110.570312 -14.476562 108.09375 -10.75 C 105.613281 -7.03125 102.210938 -4.148438 97.890625 -2.109375 C 93.679688 -0.160156 89.3125 0.617188 84.78125 0.234375 C 80.257812 -0.140625 76.160156 -1.59375 72.484375 -4.125 C 68.816406 -6.65625 65.960938 -10.023438 63.921875 -14.234375 L 50 -43.53125 C 49.894531 -43.851562 49.625 -43.957031 49.1875 -43.84375 C 48.757812 -43.738281 48.597656 -43.414062 48.703125 -42.875 L 53.078125 -24.75 L 48.21875 -14.234375 C 46.164062 -10.023438 43.28125 -6.65625 39.5625 -4.125 C 35.84375 -1.59375 31.742188 -0.140625 27.265625 0.234375 C 22.785156 0.617188 18.390625 -0.160156 14.078125 -2.109375 Z M 14.078125 -2.109375 "/></g></g></g><g clip-path="url(#c817b478ce)"><g clip-path="url(#84b2e149ce)"><path stroke-linecap="butt" transform="matrix(0.749648, 0, 0, 0.749648, 1041.376134, 278.756182)" fill="none" stroke-linejoin="miter" d="M 75.127545 0.00217519 C 33.634087 0.00217519 -0.00151275 33.632564 -0.00151275 75.126023 C -0.00151275 116.614271 33.634087 150.24987 75.127545 150.24987 C 116.615793 150.24987 150.251393 116.614271 150.251393 75.126023 C 150.251393 33.632564 116.615793 0.00217519 75.127545 0.00217519 Z M 75.127545 0.00217519 " stroke="#fcfcfc" stroke-width="100" stroke-opacity="1" stroke-miterlimit="4"/></g></g><path stroke-linecap="butt" transform="matrix(0.749648, 0, 0, 0.749648, 1318.012815, 184.3321)" fill="none" stroke-linejoin="miter" d="M 9.497794 66.849033 L 9.497794 27.502416 C 9.497794 17.560244 17.558874 9.499164 27.501046 9.499164 L 143.555588 9.499164 " stroke="#ffffff" stroke-width="19" stroke-opacity="1" stroke-miterlimit="4"/><path stroke-linecap="butt" transform="matrix(0.749483, -0.0156808, 0.0156808, 0.749483, 1153.905256, 329.027895)" fill="none" stroke-linejoin="miter" d="M 0.000872423 6.49855 L 150.927744 6.497836 " stroke="#ffffff" stroke-width="13" stroke-opacity="1" stroke-miterlimit="4"/><g clip-path="url(#48ca8ec5ae)"><path stroke-linecap="butt" transform="matrix(0.749648, 0, 0, 0.749648, 1171.349566, 238.827083)" fill="none" stroke-linejoin="miter" d="M 205.140738 253.172455 L 205.140738 311.15804 C 205.140738 318.338497 199.320294 324.158941 192.145047 324.158941 L 33.002547 324.158941 C 25.822089 324.158941 20.001645 318.338497 20.001645 311.15804 L 20.001645 0.00138968 " stroke="#ffffff" stroke-width="40" stroke-opacity="1" stroke-miterlimit="4"/></g><g fill="#ffffff" fill-opacity="1"><g transform="translate(951.539598, 379.556532)"><g><path d="M 75.359375 -105.90625 C 79.535156 -105.90625 82.765625 -104.988281 85.046875 -103.15625 C 87.335938 -101.332031 88.972656 -99.113281 89.953125 -96.5 C 90.929688 -93.894531 91.515625 -91.253906 91.703125 -88.578125 C 91.898438 -85.898438 92 -83.582031 92 -81.625 L 72.421875 -63.8125 C 70.460938 -63.03125 68.601562 -63.160156 66.84375 -64.203125 C 65.082031 -65.242188 64.203125 -66.742188 64.203125 -68.703125 C 64.203125 -74.316406 63.453125 -78.132812 61.953125 -80.15625 C 60.453125 -82.175781 57.804688 -82.175781 54.015625 -80.15625 C 50.234375 -78.132812 44.953125 -73.664062 38.171875 -66.75 L 38.171875 -27.796875 C 38.171875 -24.140625 38.363281 -20.382812 38.75 -16.53125 C 39.144531 -12.6875 39.632812 -9.265625 40.21875 -6.265625 C 40.8125 -3.265625 41.367188 -1.175781 41.890625 0 L 25.25 0 C 21.070312 0 17.546875 -1.429688 14.671875 -4.296875 C 11.804688 -7.171875 10.375 -10.695312 10.375 -14.875 L 10.375 -76.140625 C 10.375 -79.796875 10.175781 -83.546875 9.78125 -87.390625 C 9.394531 -91.242188 8.941406 -94.671875 8.421875 -97.671875 C 7.898438 -100.679688 7.3125 -102.769531 6.65625 -103.9375 L 23.296875 -103.9375 C 27.472656 -103.9375 30.992188 -102.5 33.859375 -99.625 C 36.734375 -96.757812 38.171875 -93.238281 38.171875 -89.0625 L 38.171875 -77.90625 C 43.785156 -83.519531 48.675781 -88.414062 52.84375 -92.59375 C 57.019531 -96.769531 60.898438 -100.03125 64.484375 -102.375 C 68.078125 -104.726562 71.703125 -105.90625 75.359375 -105.90625 Z M 75.359375 -105.90625 "/></g></g></g><g clip-path="url(#91051766e8)"><g clip-path="url(#c4ccf163d8)"><path stroke-linecap="butt" transform="matrix(0, -0.749648, 0.749648, 0, 593.070578, 590.020089)" fill="none" stroke-linejoin="miter" d="M 156.136613 -0.000353724 C 191.945106 -0.000353724 220.969162 32.327337 220.969162 72.205451 C 220.969162 112.088776 191.945106 144.416466 156.136613 144.416466 L 64.833293 144.416466 C 29.0248 144.416466 0.000744677 112.088776 0.000744677 72.205451 C 0.000744677 32.327337 29.0248 -0.000353724 64.833293 -0.000353724 Z M 156.136613 -0.000353724 " stroke="#fcfcfc" stroke-width="50" stroke-opacity="1" stroke-miterlimit="4"/></g></g><g clip-path="url(#fca371715c)"><g clip-path="url(#ad44961a88)"><path stroke-linecap="butt" transform="matrix(0.749648, 0, 0, 0.749648, 583.201402, 278.756182)" fill="none" stroke-linejoin="miter" d="M 78.002498 0.00217519 C 34.91975 0.00217519 0.00229837 34.919627 0.00229837 78.002374 C 0.00229837 121.079911 34.91975 156.002573 78.002498 156.002573 C 121.080034 156.002573 155.997486 121.079911 155.997486 78.002374 C 155.997486 34.919627 121.080034 0.00217519 78.002498 0.00217519 Z M 78.002498 0.00217519 " stroke="#fcfcfc" stroke-width="50" stroke-opacity="1" stroke-miterlimit="4"/></g></g><path stroke-linecap="butt" transform="matrix(0, 0.749648, -0.749648, 0, 649.171104, 278.756885)" fill="none" stroke-linejoin="miter" d="M 0.00123759 9.998462 L 78.001437 9.998462 " stroke="#ffffff" stroke-width="20" stroke-opacity="1" stroke-miterlimit="4"/><path stroke-linecap="butt" transform="matrix(0.749648, -0.0000000000141649, 0.0000000000141649, 0.749648, 593.072161, 499.699797)" fill="none" stroke-linejoin="miter" d="M -0.00246572 9.99872 L 72.213765 9.99872 " stroke="#ffffff" stroke-width="20" stroke-opacity="1" stroke-miterlimit="4"/><path stroke-linecap="butt" transform="matrix(0.0379472, 0.748686, -0.748686, 0.0379472, 679.243844, 368.155514)" fill="none" stroke-linejoin="miter" d="M 6.959687 3.939367 C 36.999236 57.005321 67.041213 57.009714 97.075737 3.941612 " stroke="#ffffff" stroke-width="16" stroke-opacity="1" stroke-miterlimit="4"/><g clip-path="url(#82298e2e1a)"><g clip-path="url(#e350b86116)"><g clip-path="url(#757e569d03)"><path fill="#d0a96c" d="M 782.609375 370.921875 L 784.378906 383.960938 C 785.011719 389.558594 790.785156 393.699219 796.289062 392.503906 L 842.726562 383.507812 L 847.8125 379.242188 C 851.09375 376.894531 850.449219 371.566406 846.703125 370.0625 L 806.441406 352.929688 L 794.078125 355.152344 C 793.191406 355.3125 792.328125 355.550781 791.488281 355.875 C 790.648438 356.199219 789.847656 356.597656 789.082031 357.078125 C 788.320312 357.554688 787.609375 358.101562 786.949219 358.714844 C 786.292969 359.328125 785.699219 360 785.167969 360.726562 C 784.636719 361.453125 784.183594 362.226562 783.800781 363.042969 C 783.421875 363.859375 783.121094 364.703125 782.902344 365.574219 C 782.679688 366.449219 782.546875 367.335938 782.5 368.234375 C 782.449219 369.132812 782.488281 370.027344 782.609375 370.921875 Z M 782.609375 370.921875 " fill-opacity="1" fill-rule="nonzero"/></g></g></g><g clip-path="url(#45f61f6435)"><g clip-path="url(#47cfbdbcb3)"><g clip-path="url(#5b0fc48ee5)"><path fill="#d0a96c" d="M 867.761719 354.605469 C 867.820312 352.984375 867.753906 351.367188 867.558594 349.757812 C 867.367188 348.144531 867.050781 346.558594 866.609375 344.996094 C 866.171875 343.433594 865.613281 341.917969 864.9375 340.441406 C 864.261719 338.96875 863.476562 337.554688 862.582031 336.199219 C 861.683594 334.847656 860.691406 333.574219 859.597656 332.375 C 858.5 331.175781 857.320312 330.070312 856.054688 329.054688 C 854.789062 328.042969 853.453125 327.132812 852.042969 326.324219 C 850.636719 325.519531 849.175781 324.828125 847.660156 324.25 L 799.515625 305.863281 C 802.226562 315.640625 794.464844 336.324219 786.066406 341.945312 C 786.105469 341.964844 807.128906 350.121094 807.164062 350.148438 L 807.164062 350.144531 L 847.820312 367.445312 C 853.464844 369.730469 854.550781 377.625 849.742188 381.347656 C 851.039062 380.773438 852.289062 380.109375 853.492188 379.359375 C 854.699219 378.605469 855.84375 377.777344 856.929688 376.863281 C 858.019531 375.953125 859.035156 374.96875 859.984375 373.914062 C 860.9375 372.859375 861.808594 371.746094 862.601562 370.570312 C 863.390625 369.390625 864.097656 368.164062 864.71875 366.890625 C 865.339844 365.613281 865.871094 364.300781 866.304688 362.949219 C 866.742188 361.601562 867.082031 360.226562 867.324219 358.828125 C 867.570312 357.429688 867.714844 356.023438 867.761719 354.605469 Z M 867.761719 354.605469 " fill-opacity="1" fill-rule="nonzero"/></g></g></g><g clip-path="url(#0092da2cb6)"><g clip-path="url(#fc4c81f733)"><g clip-path="url(#b0c9376ce9)"><path fill="#d0a96c" d="M 855.65625 260.453125 L 816.136719 245.710938 L 792.722656 249.542969 C 800.289062 257.503906 803.074219 277.113281 799.015625 286.425781 L 845.964844 277.789062 C 846.578125 277.601562 852.453125 275.75 856.886719 271.6875 C 860.566406 268.488281 860.5625 262.183594 855.65625 260.453125 Z M 855.65625 260.453125 " fill-opacity="1" fill-rule="nonzero"/></g></g></g><g clip-path="url(#9fd4298fe0)"><g clip-path="url(#bb90ea57dc)"><g clip-path="url(#7cb001b65c)"><path fill="#d0a96c" d="M 739.167969 159.621094 C 739.59375 158.632812 746.03125 153.484375 746.894531 152.65625 C 745.121094 152.9375 743.382812 153.359375 741.679688 153.914062 C 739.972656 154.46875 738.320312 155.15625 736.722656 155.972656 C 735.125 156.785156 733.601562 157.71875 732.148438 158.773438 C 730.695312 159.828125 729.335938 160.988281 728.066406 162.253906 C 726.796875 163.523438 725.632812 164.882812 724.578125 166.332031 C 723.519531 167.78125 722.582031 169.304688 721.765625 170.898438 C 720.945312 172.496094 720.257812 174.144531 719.695312 175.851562 C 719.136719 177.554688 718.714844 179.292969 718.425781 181.0625 C 718.265625 181.921875 718.144531 182.789062 718.0625 183.65625 C 717.976562 184.527344 717.933594 185.402344 717.925781 186.273438 C 717.917969 187.148438 717.949219 188.023438 718.019531 188.894531 C 718.089844 189.765625 718.199219 190.632812 718.34375 191.492188 C 718.492188 192.355469 718.675781 193.210938 718.898438 194.054688 C 719.121094 194.902344 719.378906 195.734375 719.675781 196.558594 C 719.972656 197.378906 720.300781 198.1875 720.667969 198.980469 C 721.035156 199.777344 721.4375 200.550781 721.871094 201.308594 C 722.308594 202.066406 722.777344 202.804688 723.277344 203.523438 C 723.777344 204.238281 724.308594 204.933594 724.871094 205.601562 C 725.429688 206.273438 726.019531 206.917969 726.640625 207.535156 C 727.257812 208.152344 727.902344 208.742188 728.574219 209.304688 C 729.242188 209.863281 729.9375 210.394531 730.65625 210.894531 C 731.371094 211.394531 732.109375 211.863281 732.867188 212.296875 C 733.628906 212.730469 734.402344 213.132812 735.199219 213.5 C 735.992188 213.863281 736.800781 214.195312 737.621094 214.492188 L 789.132812 232.980469 C 788.378906 230.691406 788.292969 227.992188 788.410156 225.8125 C 788.417969 225.621094 788.464844 225.441406 788.542969 225.265625 C 788.625 225.09375 788.734375 224.945312 788.875 224.816406 C 789.015625 224.6875 789.179688 224.589844 789.355469 224.527344 C 789.535156 224.464844 789.722656 224.4375 789.910156 224.449219 C 790.101562 224.457031 790.285156 224.503906 790.453125 224.585938 C 790.625 224.671875 790.773438 224.78125 790.902344 224.925781 C 791.027344 225.070312 791.121094 225.230469 791.183594 225.410156 C 791.246094 225.589844 791.269531 225.777344 791.257812 225.964844 C 791.03125 230.117188 791.695312 232.644531 793.117188 234.414062 C 797.160156 236.363281 803.460938 229.566406 807.730469 218.464844 C 809.707031 213.332031 810.664062 208.1875 810.527344 204.03125 C 810.265625 196.226562 806.582031 195.066406 801.308594 200.808594 C 801.183594 200.949219 801.03125 201.058594 800.863281 201.140625 C 800.691406 201.222656 800.511719 201.265625 800.324219 201.277344 C 800.132812 201.285156 799.949219 201.257812 799.773438 201.195312 C 799.59375 201.128906 799.4375 201.035156 799.296875 200.910156 C 799.15625 200.78125 799.046875 200.632812 798.964844 200.460938 C 798.882812 200.289062 798.839844 200.109375 798.832031 199.921875 C 798.820312 199.734375 798.847656 199.550781 798.910156 199.371094 C 798.976562 199.195312 799.070312 199.035156 799.199219 198.894531 C 800.316406 197.621094 801.59375 196.527344 803.027344 195.617188 L 779.945312 187.460938 C 779.9375 187.472656 744.113281 172.203125 744.078125 172.199219 C 738.9375 169.933594 735.652344 164.757812 739.167969 159.621094 Z M 793.730469 207.09375 C 793.816406 206.925781 793.929688 206.777344 794.074219 206.65625 C 794.21875 206.535156 794.378906 206.441406 794.558594 206.382812 C 794.738281 206.324219 794.921875 206.304688 795.109375 206.320312 C 795.296875 206.332031 795.476562 206.382812 795.644531 206.46875 C 795.8125 206.554688 795.957031 206.667969 796.082031 206.8125 C 796.203125 206.953125 796.296875 207.117188 796.355469 207.292969 C 796.414062 207.472656 796.433594 207.65625 796.421875 207.847656 C 796.40625 208.035156 796.359375 208.210938 796.273438 208.382812 C 794.882812 211.136719 793.757812 214 792.890625 216.960938 C 792.839844 217.144531 792.753906 217.308594 792.636719 217.457031 C 792.515625 217.601562 792.375 217.722656 792.207031 217.8125 C 792.042969 217.902344 791.867188 217.957031 791.679688 217.980469 C 791.492188 218 791.304688 217.984375 791.125 217.929688 C 790.945312 217.878906 790.777344 217.792969 790.632812 217.671875 C 790.484375 217.554688 790.367188 217.414062 790.273438 217.246094 C 790.183594 217.082031 790.128906 216.90625 790.109375 216.71875 C 790.085938 216.527344 790.105469 216.34375 790.15625 216.164062 C 791.074219 213.03125 792.261719 210.007812 793.730469 207.09375 Z M 793.730469 207.09375 " fill-opacity="1" fill-rule="nonzero"/></g></g></g><g clip-path="url(#655661a823)"><g clip-path="url(#f64d8248bd)"><g clip-path="url(#c8cd802313)"><path fill="#d0a96c" d="M 878.375 248.027344 C 878.117188 246.003906 877.722656 244.007812 877.1875 242.035156 C 876.65625 240.066406 875.988281 238.144531 875.1875 236.265625 C 874.386719 234.390625 873.460938 232.574219 872.40625 230.828125 C 871.355469 229.078125 870.1875 227.410156 868.90625 225.824219 C 867.621094 224.238281 866.234375 222.746094 864.742188 221.351562 C 863.253906 219.957031 861.675781 218.671875 860.003906 217.496094 C 858.335938 216.324219 856.59375 215.269531 854.78125 214.335938 C 852.964844 213.402344 851.09375 212.597656 849.167969 211.921875 L 812.566406 198.992188 C 815.953125 210.421875 807.890625 230.375 798.601562 236.382812 C 798.609375 236.386719 816.773438 242.90625 816.777344 242.910156 L 856.652344 257.78125 C 863.585938 260.304688 864.0625 269.105469 858.8125 273.785156 C 857.984375 274.542969 857.109375 275.242188 856.191406 275.886719 C 868.195312 273.253906 880.0625 261.042969 878.375 248.027344 Z M 878.375 248.027344 " fill-opacity="1" fill-rule="nonzero"/></g></g></g><g clip-path="url(#2951747a3f)"><g clip-path="url(#4ef5243a5a)"><g clip-path="url(#09d874c91d)"><path fill="#d0a96c" d="M 782.007812 256.464844 C 782.242188 254.578125 782.757812 252.773438 783.554688 251.046875 L 747.054688 257.019531 L 732.722656 267.886719 C 729.816406 270.59375 729.976562 275.464844 733.855469 276.953125 L 770.425781 291.6875 L 789.996094 288.089844 C 789.054688 287.140625 788.238281 286.09375 787.554688 284.945312 C 786.5625 283.371094 789.035156 281.867188 789.980469 283.449219 C 791.179688 285.285156 792.652344 287.367188 794.445312 287.269531 C 796.90625 286.847656 799.246094 278.941406 797.3125 267.5 C 796.457031 262.449219 794.902344 257.828125 792.933594 254.492188 C 791.273438 251.683594 789.429688 250.078125 788.117188 250.300781 C 786.074219 250.867188 785.277344 254.164062 784.828125 256.878906 C 784.800781 257.066406 784.738281 257.242188 784.640625 257.402344 C 784.542969 257.566406 784.417969 257.703125 784.265625 257.816406 C 784.117188 257.929688 783.949219 258.007812 783.765625 258.054688 C 783.582031 258.101562 783.398438 258.109375 783.210938 258.082031 C 783.023438 258.054688 782.847656 257.992188 782.6875 257.894531 C 782.523438 257.800781 782.386719 257.675781 782.273438 257.523438 C 782.160156 257.371094 782.082031 257.203125 782.035156 257.019531 C 781.988281 256.835938 781.980469 256.652344 782.007812 256.464844 Z M 784.726562 266.011719 C 785.027344 269.082031 785.605469 272.105469 786.457031 275.074219 C 786.507812 275.253906 786.523438 275.4375 786.503906 275.625 C 786.480469 275.816406 786.425781 275.992188 786.335938 276.15625 C 786.242188 276.320312 786.125 276.464844 785.976562 276.582031 C 785.828125 276.699219 785.664062 276.785156 785.480469 276.835938 C 785.300781 276.890625 785.117188 276.90625 784.925781 276.886719 C 784.738281 276.863281 784.5625 276.808594 784.398438 276.714844 C 784.230469 276.625 784.089844 276.503906 783.972656 276.359375 C 783.855469 276.210938 783.769531 276.046875 783.714844 275.863281 C 782.816406 272.726562 782.210938 269.535156 781.890625 266.289062 C 781.691406 264.449219 784.5625 264.164062 784.726562 266.011719 Z M 784.726562 266.011719 " fill-opacity="1" fill-rule="nonzero"/></g></g></g><g clip-path="url(#557a8e5fc5)"><g clip-path="url(#23a3320882)"><g clip-path="url(#b87d36ed20)"><path fill="#d0a96c" d="M 708.191406 291.257812 C 707.851562 304.980469 720.539062 316.816406 733.246094 321.410156 L 777.554688 338.632812 C 777.179688 337.074219 777.015625 335.492188 777.066406 333.886719 C 777.082031 332.039062 779.945312 332.0625 779.914062 333.925781 C 779.933594 337.246094 780.378906 339.570312 781.839844 340.296875 C 784.1875 341.175781 790.222656 335.402344 794.363281 324.355469 C 798.460938 313.410156 797.605469 305.117188 795.21875 304.21875 C 793.882812 303.71875 791.5 305.34375 789.136719 308.359375 C 789.023438 308.507812 788.886719 308.632812 788.722656 308.730469 C 788.5625 308.828125 788.386719 308.886719 788.199219 308.914062 C 788.011719 308.941406 787.828125 308.933594 787.644531 308.886719 C 787.460938 308.839844 787.292969 308.761719 787.140625 308.648438 C 786.992188 308.535156 786.867188 308.398438 786.769531 308.234375 C 786.671875 308.070312 786.613281 307.898438 786.585938 307.710938 C 786.558594 307.523438 786.566406 307.339844 786.613281 307.15625 C 786.660156 306.972656 786.738281 306.804688 786.851562 306.652344 C 788.019531 305.085938 789.398438 303.734375 790.988281 302.601562 C 777.902344 297.804688 746.050781 284.988281 732.792969 279.59375 C 726.878906 277.367188 726.394531 269.570312 730.929688 265.667969 L 741.039062 258.003906 L 736.519531 258.742188 C 735.558594 258.902344 734.605469 259.101562 733.660156 259.339844 C 732.714844 259.582031 731.78125 259.863281 730.863281 260.183594 C 729.941406 260.503906 729.039062 260.863281 728.148438 261.265625 C 727.257812 261.664062 726.390625 262.101562 725.539062 262.574219 C 724.6875 263.050781 723.855469 263.558594 723.050781 264.105469 C 722.242188 264.652344 721.460938 265.230469 720.703125 265.847656 C 719.945312 266.460938 719.21875 267.105469 718.515625 267.78125 C 717.8125 268.460938 717.144531 269.164062 716.503906 269.898438 C 715.863281 270.636719 715.253906 271.394531 714.679688 272.183594 C 714.105469 272.972656 713.566406 273.78125 713.0625 274.617188 C 712.558594 275.449219 712.089844 276.304688 711.660156 277.179688 C 711.230469 278.054688 710.835938 278.945312 710.484375 279.851562 C 710.128906 280.761719 709.816406 281.683594 709.542969 282.617188 C 709.269531 283.554688 709.035156 284.5 708.84375 285.457031 C 708.652344 286.410156 708.5 287.371094 708.394531 288.339844 C 708.285156 289.308594 708.21875 290.28125 708.191406 291.257812 Z M 782.003906 314.796875 C 782.105469 314.652344 782.230469 314.53125 782.378906 314.433594 C 782.527344 314.335938 782.691406 314.265625 782.863281 314.230469 C 783.035156 314.191406 783.210938 314.1875 783.386719 314.214844 C 783.5625 314.242188 783.726562 314.300781 783.878906 314.390625 C 784.035156 314.480469 784.167969 314.59375 784.277344 314.734375 C 784.386719 314.871094 784.46875 315.027344 784.523438 315.195312 C 784.578125 315.363281 784.597656 315.539062 784.585938 315.714844 C 784.574219 315.890625 784.53125 316.0625 784.457031 316.222656 C 783.15625 319.027344 782.105469 321.921875 781.296875 324.90625 C 781.25 325.089844 781.167969 325.257812 781.054688 325.40625 C 780.9375 325.558594 780.800781 325.679688 780.636719 325.773438 C 780.472656 325.867188 780.296875 325.929688 780.109375 325.953125 C 779.921875 325.976562 779.738281 325.964844 779.554688 325.917969 C 779.371094 325.871094 779.207031 325.789062 779.054688 325.671875 C 778.90625 325.558594 778.78125 325.417969 778.6875 325.253906 C 778.59375 325.089844 778.535156 324.917969 778.507812 324.730469 C 778.484375 324.542969 778.496094 324.355469 778.542969 324.175781 C 779.402344 320.9375 780.554688 317.8125 782.003906 314.796875 Z M 782.003906 314.796875 " fill-opacity="1" fill-rule="nonzero"/></g></g></g><g clip-path="url(#3b67f47dc9)"><g clip-path="url(#8858d1b3fa)"><g clip-path="url(#cd6ecd65fc)"><path fill="#d0a96c" d="M 786.789062 144.316406 L 752.6875 151.445312 L 742.15625 160.464844 C 738.828125 163.867188 741.175781 167.828125 745.195312 169.582031 L 780.550781 184.632812 L 793.835938 181.554688 C 794.585938 181.378906 795.316406 181.136719 796.023438 180.828125 C 796.730469 180.523438 797.402344 180.15625 798.042969 179.726562 C 798.6875 179.300781 799.285156 178.816406 799.839844 178.28125 C 800.390625 177.746094 800.894531 177.167969 801.34375 176.542969 C 801.792969 175.914062 802.183594 175.253906 802.515625 174.558594 C 802.847656 173.863281 803.113281 173.144531 803.316406 172.398438 C 803.519531 171.65625 803.652344 170.898438 803.71875 170.132812 C 803.785156 169.363281 803.78125 168.597656 803.707031 167.828125 L 802.558594 155.917969 C 801.996094 148.332031 794.195312 142.597656 786.789062 144.316406 Z M 786.789062 144.316406 " fill-opacity="1" fill-rule="nonzero"/></g></g></g><path stroke-linecap="round" transform="matrix(0.749648, 0, 0, 0.749648, 815.770419, 142.204999)" fill="none" stroke-linejoin="miter" d="M 17.001598 17.000282 L 138.376349 17.000282 C 149.277305 17.000282 159.730134 21.330442 167.436881 29.037189 C 175.143628 36.743936 179.473788 47.196765 179.473788 58.097722 L 179.473788 99.05447 C 179.473788 99.090945 179.48942 99.127421 179.515474 99.158685 C 179.546739 99.184739 179.583214 99.200372 179.61969 99.200372 C 179.661376 99.200372 179.697852 99.216004 179.723906 99.242058 C 179.749959 99.268112 179.765592 99.304587 179.765592 99.346274 L 179.765592 136.869116 C 179.765592 145.649285 176.279578 154.069909 170.068326 160.281161 C 163.862284 166.487203 155.44166 169.978427 146.661492 169.978427 L 113.552182 169.978427 " stroke="#ffffff" stroke-width="34" stroke-opacity="1" stroke-miterlimit="4"/><g fill="#ffffff" fill-opacity="1"><g transform="translate(452.189066, 381.516471)"><g><path d="M 101.390625 -26.859375 C 101.390625 -23.328125 101.546875 -19.703125 101.859375 -15.984375 C 102.171875 -12.265625 102.609375 -8.953125 103.171875 -6.046875 C 103.742188 -3.148438 104.347656 -1.132812 104.984375 0 L 88.71875 0 C 84.800781 0 81.457031 -1.382812 78.6875 -4.15625 C 75.914062 -6.9375 74.53125 -10.34375 74.53125 -14.375 L 74.53125 -28.1875 C 71.5 -23.007812 67.960938 -18.148438 63.921875 -13.609375 C 59.890625 -9.078125 55.414062 -5.390625 50.5 -2.546875 C 45.582031 0.285156 40.285156 1.703125 34.609375 1.703125 C 28.304688 1.703125 23.453125 0.566406 20.046875 -1.703125 C 16.640625 -3.972656 14.210938 -7.1875 12.765625 -11.34375 C 11.316406 -15.507812 10.429688 -20.394531 10.109375 -26 C 9.796875 -31.613281 9.640625 -37.703125 9.640625 -44.265625 L 9.640625 -73.578125 C 9.640625 -77.109375 9.453125 -80.734375 9.078125 -84.453125 C 8.703125 -88.171875 8.257812 -91.476562 7.75 -94.375 C 7.25 -97.28125 6.679688 -99.300781 6.046875 -100.4375 L 22.125 -100.4375 C 26.164062 -100.4375 29.570312 -99.050781 32.34375 -96.28125 C 35.113281 -93.507812 36.5 -90.101562 36.5 -86.0625 L 36.5 -35.375 C 36.5 -27.550781 37.507812 -22.21875 39.53125 -19.375 C 41.550781 -16.539062 44.328125 -15.691406 47.859375 -16.828125 C 51.390625 -17.960938 55.421875 -20.640625 59.953125 -24.859375 C 64.492188 -29.085938 69.351562 -34.359375 74.53125 -40.671875 L 74.53125 -73.578125 C 74.53125 -77.109375 74.335938 -80.734375 73.953125 -84.453125 C 73.578125 -88.171875 73.101562 -91.476562 72.53125 -94.375 C 71.96875 -97.28125 71.4375 -99.300781 70.9375 -100.4375 L 87.015625 -100.4375 C 90.921875 -100.4375 94.289062 -99.050781 97.125 -96.28125 C 99.96875 -93.507812 101.390625 -90.101562 101.390625 -86.0625 Z M 101.390625 -26.859375 "/></g></g></g><g fill="#ffffff" fill-opacity="1"><g transform="translate(87.502534, 393.860021)"><g><path d="M 111.109375 -269.421875 C 126.960938 -269.421875 142.164062 -266.695312 156.71875 -261.25 C 171.269531 -255.8125 184.222656 -247.53125 195.578125 -236.40625 C 206.941406 -225.28125 215.878906 -211.257812 222.390625 -194.34375 C 228.898438 -177.425781 232.15625 -157.609375 232.15625 -134.890625 C 232.15625 -112.171875 228.898438 -92.347656 222.390625 -75.421875 C 215.878906 -58.503906 206.941406 -44.484375 195.578125 -33.359375 C 184.222656 -22.242188 171.269531 -13.90625 156.71875 -8.34375 C 142.164062 -2.78125 126.960938 0 111.109375 0 L 50.40625 0 C 42.832031 0 36.441406 -2.660156 31.234375 -7.984375 C 26.023438 -13.304688 23.421875 -19.640625 23.421875 -26.984375 L 23.421875 -202.328125 C 23.421875 -206.828125 23.242188 -213.097656 22.890625 -221.140625 C 22.535156 -229.191406 21.410156 -237.59375 19.515625 -246.34375 C 17.628906 -255.101562 14.4375 -262.796875 9.9375 -269.421875 Z M 111.109375 -26.984375 C 124.597656 -26.984375 135.660156 -30.175781 144.296875 -36.5625 C 152.929688 -42.945312 159.734375 -51.40625 164.703125 -61.9375 C 169.671875 -72.46875 173.160156 -84.125 175.171875 -96.90625 C 177.179688 -109.6875 178.1875 -122.347656 178.1875 -134.890625 C 178.1875 -147.429688 177.179688 -160.085938 175.171875 -172.859375 C 173.160156 -185.640625 169.671875 -197.296875 164.703125 -207.828125 C 159.734375 -218.359375 152.929688 -226.757812 144.296875 -233.03125 C 135.660156 -239.300781 124.597656 -242.4375 111.109375 -242.4375 L 77.390625 -242.4375 L 77.390625 -26.984375 Z M 111.109375 -26.984375 "/></g></g></g><path stroke-linecap="butt" transform="matrix(0.749648, 0, 0, 0.749648, 359.256745, 266.762817)" fill="none" stroke-linejoin="miter" d="M 7.999974 140.251949 L 7.999974 20.997987 C 7.999974 13.82274 13.820418 8.002296 21.000876 8.002296 L 72.415664 8.002296 " stroke="#ffffff" stroke-width="16" stroke-opacity="1" stroke-miterlimit="4"/><g clip-path="url(#d98ee59a8a)"><g clip-path="url(#3bd578de1f)"><path fill="#dc2323" d="M 386.246094 238.601562 L 447.796875 238.601562 L 447.796875 300.152344 L 386.246094 300.152344 Z M 386.246094 238.601562 " fill-opacity="1" fill-rule="nonzero"/></g></g><g clip-path="url(#daf8f5bb34)"><g clip-path="url(#0f24119dbf)"><path stroke-linecap="butt" transform="matrix(0.749648, 0, 0, 0.749648, 386.245404, 238.603494)" fill="none" stroke-linejoin="miter" d="M 41.046251 -0.00257649 C 18.379349 -0.00257649 0.000919745 18.375852 0.000919745 41.047966 C 0.000919745 63.714869 18.379349 82.093297 41.046251 82.093297 C 63.718365 82.093297 82.091583 63.714869 82.091583 41.047966 C 82.091583 18.375852 63.718365 -0.00257649 41.046251 -0.00257649 Z M 41.046251 -0.00257649 " stroke="#fcfcfc" stroke-width="20" stroke-opacity="1" stroke-miterlimit="4"/></g></g><g clip-path="url(#ce88e1ebd3)"><g clip-path="url(#06fc60dc1e)"><path fill="#3877ad" d="M 334 336.289062 L 395.550781 336.289062 L 395.550781 397.839844 L 334 397.839844 Z M 334 336.289062 " fill-opacity="1" fill-rule="nonzero"/></g></g><g clip-path="url(#57e7c3af8c)"><g clip-path="url(#cab09d503c)"><path stroke-linecap="butt" transform="matrix(0.749648, 0, 0, 0.749648, 334.001823, 336.2887)" fill="none" stroke-linejoin="miter" d="M 41.048111 0.00048302 C 18.375997 0.00048302 -0.00243173 18.378912 -0.00243173 41.045815 C -0.00243173 63.717928 18.375997 82.091146 41.048111 82.091146 C 63.715013 82.091146 82.093442 63.717928 82.093442 41.045815 C 82.093442 18.378912 63.715013 0.00048302 41.048111 0.00048302 Z M 41.048111 0.00048302 " stroke="#fcfcfc" stroke-width="20" stroke-opacity="1" stroke-miterlimit="4"/></g></g><g clip-path="url(#ee9e3fb9d1)"><g clip-path="url(#131f8ba615)"><path fill="#6fa200" d="M 329.722656 242.195312 L 372.417969 242.195312 L 372.417969 284.894531 L 329.722656 284.894531 Z M 329.722656 242.195312 " fill-opacity="1" fill-rule="nonzero"/></g></g><g clip-path="url(#56a656c824)"><g clip-path="url(#3a743e5363)"><path stroke-linecap="butt" transform="matrix(0.749648, 0, 0, 0.749648, 329.722801, 242.197057)" fill="none" stroke-linejoin="miter" d="M 28.476731 -0.00232725 C 12.750591 -0.00232725 -0.000193468 12.748457 -0.000193468 28.474598 C -0.000193468 44.205949 12.750591 56.951522 28.476731 56.951522 C 44.202872 56.951522 56.953656 44.205949 56.953656 28.474598 C 56.953656 12.748457 44.202872 -0.00232725 28.476731 -0.00232725 Z M 28.476731 -0.00232725 " stroke="#fcfcfc" stroke-width="20" stroke-opacity="1" stroke-miterlimit="4"/></g></g></svg>