<svg xmlns="http://www.w3.org/2000/svg" xmlns:xlink="http://www.w3.org/1999/xlink" width="853" zoomAndPan="magnify" viewBox="0 0 639.75 577.499988" height="770" preserveAspectRatio="xMidYMid meet" version="1.0"><defs><g/><clipPath id="4362784028"><path d="M 242.816406 296.136719 L 427.199219 296.136719 L 427.199219 480.515625 L 242.816406 480.515625 Z M 242.816406 296.136719 " clip-rule="nonzero"/></clipPath><clipPath id="a636e97ce6"><path d="M 281.035156 296.136719 L 388.980469 296.136719 C 399.117188 296.136719 408.835938 300.164062 416.003906 307.332031 C 423.171875 314.496094 427.199219 324.21875 427.199219 334.355469 L 427.199219 442.300781 C 427.199219 452.4375 423.171875 462.15625 416.003906 469.324219 C 408.835938 476.492188 399.117188 480.515625 388.980469 480.515625 L 281.035156 480.515625 C 270.898438 480.515625 261.179688 476.492188 254.011719 469.324219 C 246.84375 462.15625 242.816406 452.4375 242.816406 442.300781 L 242.816406 334.355469 C 242.816406 324.21875 246.84375 314.496094 254.011719 307.332031 C 261.179688 300.164062 270.898438 296.136719 281.035156 296.136719 Z M 281.035156 296.136719 " clip-rule="nonzero"/></clipPath><clipPath id="f844f62728"><path d="M 448.410156 211.925781 L 519.800781 211.925781 L 519.800781 283.316406 L 448.410156 283.316406 Z M 448.410156 211.925781 " clip-rule="nonzero"/></clipPath><clipPath id="ea02544c12"><path d="M 484.105469 211.925781 C 464.390625 211.925781 448.410156 227.90625 448.410156 247.621094 C 448.410156 267.335938 464.390625 283.316406 484.105469 283.316406 C 503.820312 283.316406 519.800781 267.335938 519.800781 247.621094 C 519.800781 227.90625 503.820312 211.925781 484.105469 211.925781 Z M 484.105469 211.925781 " clip-rule="nonzero"/></clipPath><clipPath id="83c4296393"><path d="M 0.152344 0 L 530 0 L 530 577 L 0.152344 577 Z M 0.152344 0 " clip-rule="nonzero"/></clipPath><clipPath id="afa8a45e8b"><path d="M 192.953125 0 L 402.90625 0 L 402.90625 209.953125 L 192.953125 209.953125 Z M 192.953125 0 " clip-rule="nonzero"/></clipPath><clipPath id="cd71860a06"><path d="M 297.929688 0 C 239.953125 0 192.953125 47 192.953125 104.976562 C 192.953125 162.953125 239.953125 209.953125 297.929688 209.953125 C 355.90625 209.953125 402.90625 162.953125 402.90625 104.976562 C 402.90625 47 355.90625 0 297.929688 0 Z M 297.929688 0 " clip-rule="nonzero"/></clipPath><clipPath id="0373541da6"><path d="M 192.953125 0 L 402.890625 0 L 402.890625 209.9375 L 192.953125 209.9375 Z M 192.953125 0 " clip-rule="nonzero"/></clipPath><clipPath id="c9aa619a7e"><path d="M 297.921875 0 C 239.949219 0 192.953125 46.996094 192.953125 104.96875 C 192.953125 162.941406 239.949219 209.9375 297.921875 209.9375 C 355.894531 209.9375 402.890625 162.941406 402.890625 104.96875 C 402.890625 46.996094 355.894531 0 297.921875 0 Z M 297.921875 0 " clip-rule="nonzero"/></clipPath><clipPath id="f7b7bf7247"><path d="M 14.746094 333.207031 L 224.699219 333.207031 L 224.699219 543.160156 L 14.746094 543.160156 Z M 14.746094 333.207031 " clip-rule="nonzero"/></clipPath><clipPath id="e8dda8d437"><path d="M 119.722656 333.207031 C 61.746094 333.207031 14.746094 380.207031 14.746094 438.183594 C 14.746094 496.160156 61.746094 543.160156 119.722656 543.160156 C 177.699219 543.160156 224.699219 496.160156 224.699219 438.183594 C 224.699219 380.207031 177.699219 333.207031 119.722656 333.207031 Z M 119.722656 333.207031 " clip-rule="nonzero"/></clipPath><clipPath id="69cb984e25"><path d="M 14.746094 333.207031 L 224.6875 333.207031 L 224.6875 543.148438 L 14.746094 543.148438 Z M 14.746094 333.207031 " clip-rule="nonzero"/></clipPath><clipPath id="526d58d6b2"><path d="M 119.71875 333.207031 C 61.746094 333.207031 14.746094 380.207031 14.746094 438.179688 C 14.746094 496.152344 61.746094 543.148438 119.71875 543.148438 C 177.691406 543.148438 224.6875 496.152344 224.6875 438.179688 C 224.6875 380.207031 177.691406 333.207031 119.71875 333.207031 Z M 119.71875 333.207031 " clip-rule="nonzero"/></clipPath><clipPath id="506b28130c"><path d="M 0.152344 12.257812 L 145.792969 12.257812 L 145.792969 157.898438 L 0.152344 157.898438 Z M 0.152344 12.257812 " clip-rule="nonzero"/></clipPath><clipPath id="1b9c5d4994"><path d="M 72.972656 12.257812 C 32.753906 12.257812 0.152344 44.859375 0.152344 85.078125 C 0.152344 125.296875 32.753906 157.898438 72.972656 157.898438 C 113.191406 157.898438 145.792969 125.296875 145.792969 85.078125 C 145.792969 44.859375 113.191406 12.257812 72.972656 12.257812 Z M 72.972656 12.257812 " clip-rule="nonzero"/></clipPath><clipPath id="f6303ea250"><path d="M 0.152344 12.257812 L 145.785156 12.257812 L 145.785156 157.890625 L 0.152344 157.890625 Z M 0.152344 12.257812 " clip-rule="nonzero"/></clipPath><clipPath id="452e556dc1"><path d="M 72.96875 12.257812 C 32.753906 12.257812 0.152344 44.859375 0.152344 85.074219 C 0.152344 125.289062 32.753906 157.890625 72.96875 157.890625 C 113.183594 157.890625 145.785156 125.289062 145.785156 85.074219 C 145.785156 44.859375 113.183594 12.257812 72.96875 12.257812 Z M 72.96875 12.257812 " clip-rule="nonzero"/></clipPath></defs><g clip-path="url(#4362784028)"><g clip-path="url(#a636e97ce6)"><path fill="#fcfcfc" d="M 242.816406 296.136719 L 427.199219 296.136719 L 427.199219 480.515625 L 242.816406 480.515625 Z M 242.816406 296.136719 " fill-opacity="1" fill-rule="nonzero"/></g></g><g clip-path="url(#f844f62728)"><g clip-path="url(#ea02544c12)"><path fill="#fcfcfc" d="M 448.410156 211.925781 L 519.800781 211.925781 L 519.800781 283.316406 L 448.410156 283.316406 Z M 448.410156 211.925781 " fill-opacity="1" fill-rule="nonzero"/></g></g><g fill="#ffffff" fill-opacity="1"><g transform="translate(453.063975, 457.095506)"><g><path d="M 27.4375 1.609375 C 31.625 1.609375 35.570312 0.800781 39.28125 -0.8125 C 42.988281 -2.425781 46.003906 -5.382812 48.328125 -9.6875 C 50.660156 -13.988281 51.828125 -20.085938 51.828125 -27.984375 C 52.304688 -40.421875 52.546875 -54.050781 52.546875 -68.875 C 52.546875 -95.539062 52.25 -114.429688 51.65625 -125.546875 C 51.175781 -131.285156 48.8125 -136.035156 44.5625 -139.796875 C 40.320312 -143.566406 35.09375 -145.453125 28.875 -145.453125 C 22.65625 -145.453125 17.570312 -143.476562 13.625 -139.53125 C 9.6875 -135.59375 7.414062 -130.453125 6.8125 -124.109375 C 6.570312 -122.316406 6.390625 -120.550781 6.265625 -118.8125 C 6.148438 -117.082031 6.0625 -114.898438 6 -112.265625 C 5.945312 -109.640625 5.921875 -105.816406 5.921875 -100.796875 L 6.453125 -31.921875 L 6.28125 -27.078125 C 6.28125 -18.472656 7.773438 -11.539062 10.765625 -6.28125 C 13.753906 -1.019531 19.3125 1.609375 27.4375 1.609375 Z M 27.4375 1.609375 "/></g></g></g><g fill="#25248e" fill-opacity="1"><g transform="translate(269.547255, 451.342398)"><g><path d="M 15.890625 -2.375 C 11.140625 -4.6875 7.332031 -7.941406 4.46875 -12.140625 C 1.613281 -16.335938 -0.0234375 -20.960938 -0.453125 -26.015625 C -0.878906 -31.066406 0 -35.90625 2.1875 -40.53125 L 36.703125 -113.75 C 39.253906 -119.226562 42.90625 -123.367188 47.65625 -126.171875 C 52.40625 -128.972656 57.488281 -130.398438 62.90625 -130.453125 C 68.320312 -130.515625 73.398438 -129.175781 78.140625 -126.4375 C 82.890625 -123.707031 86.601562 -119.539062 89.28125 -113.9375 L 124.15625 -40.53125 C 126.476562 -35.90625 127.394531 -31.066406 126.90625 -26.015625 C 126.414062 -20.960938 124.769531 -16.335938 121.96875 -12.140625 C 119.164062 -7.941406 115.332031 -4.6875 110.46875 -2.375 C 105.71875 -0.1875 100.785156 0.691406 95.671875 0.265625 C 90.566406 -0.148438 85.941406 -1.789062 81.796875 -4.65625 C 77.660156 -7.519531 74.4375 -11.320312 72.125 -16.0625 L 56.421875 -49.125 C 56.296875 -49.488281 55.988281 -49.609375 55.5 -49.484375 C 55.019531 -49.359375 54.835938 -48.992188 54.953125 -48.390625 L 59.890625 -27.9375 L 54.40625 -16.0625 C 52.09375 -11.320312 48.835938 -7.519531 44.640625 -4.65625 C 40.441406 -1.789062 35.816406 -0.148438 30.765625 0.265625 C 25.710938 0.691406 20.753906 -0.1875 15.890625 -2.375 Z M 15.890625 -2.375 "/></g></g></g><path stroke-linecap="butt" transform="matrix(0.879786, 0, 0, 0.879786, 327.089257, 239.70321)" fill="none" stroke-linejoin="miter" d="M 9.000545 64.144567 L 9.000545 26.000537 C 9.000545 16.609939 16.610703 8.999781 26.001301 8.999781 L 137.898154 8.999781 " stroke="#ffffff" stroke-width="18" stroke-opacity="1" stroke-miterlimit="4"/><g clip-path="url(#83c4296393)"><path stroke-linecap="butt" transform="matrix(0.879786, 0, 0, 0.879786, 99.795338, 94.954662)" fill="none" stroke-linejoin="miter" d="M 24.501661 408.882194 L 24.501661 61.501118 C 24.501661 41.063803 41.067297 24.498167 61.500172 24.498167 L 211.718656 24.498167 " stroke="#ffffff" stroke-width="49" stroke-opacity="1" stroke-miterlimit="4"/></g><g clip-path="url(#afa8a45e8b)"><g clip-path="url(#cd71860a06)"><path fill="#dc2323" d="M 192.953125 0 L 402.90625 0 L 402.90625 209.953125 L 192.953125 209.953125 Z M 192.953125 0 " fill-opacity="1" fill-rule="nonzero"/></g></g><g clip-path="url(#0373541da6)"><g clip-path="url(#c9aa619a7e)"><path stroke-linecap="butt" transform="matrix(0.879786, 0, 0, 0.879786, 192.953029, 0.000000000000065274)" fill="none" stroke-linejoin="miter" d="M 119.31176 -0.000000000000074194 C 53.417736 -0.000000000000074194 0.000108643 53.417627 0.000108643 119.311651 C 0.000108643 185.205675 53.417736 238.623302 119.31176 238.623302 C 185.205784 238.623302 238.623411 185.205675 238.623411 119.311651 C 238.623411 53.417627 185.205784 -0.000000000000074194 119.31176 -0.000000000000074194 Z M 119.31176 -0.000000000000074194 " stroke="#fcfcfc" stroke-width="17.034845" stroke-opacity="1" stroke-miterlimit="4"/></g></g><g clip-path="url(#f7b7bf7247)"><g clip-path="url(#e8dda8d437)"><path fill="#3877ad" d="M 14.746094 333.207031 L 224.699219 333.207031 L 224.699219 543.160156 L 14.746094 543.160156 Z M 14.746094 333.207031 " fill-opacity="1" fill-rule="nonzero"/></g></g><g clip-path="url(#69cb984e25)"><g clip-path="url(#526d58d6b2)"><path stroke-linecap="butt" transform="matrix(0.879786, 0, 0, 0.879786, 14.747726, 333.208831)" fill="none" stroke-linejoin="miter" d="M 119.314236 -0.00204602 C 53.420212 -0.00204602 -0.00185518 53.420021 -0.00185518 119.314045 C -0.00185518 185.208069 53.420212 238.625696 119.314236 238.625696 C 185.20826 238.625696 238.625887 185.208069 238.625887 119.314045 C 238.625887 53.420021 185.20826 -0.00204602 119.314236 -0.00204602 Z M 119.314236 -0.00204602 " stroke="#fcfcfc" stroke-width="17.034845" stroke-opacity="1" stroke-miterlimit="4"/></g></g><g clip-path="url(#506b28130c)"><g clip-path="url(#1b9c5d4994)"><path fill="#6fa200" d="M 0.152344 12.257812 L 145.792969 12.257812 L 145.792969 157.898438 L 0.152344 157.898438 Z M 0.152344 12.257812 " fill-opacity="1" fill-rule="nonzero"/></g></g><g clip-path="url(#f6303ea250)"><g clip-path="url(#452e556dc1)"><path stroke-linecap="butt" transform="matrix(0.879786, 0, 0, 0.879786, 0.151823, 12.25786)" fill="none" stroke-linejoin="miter" d="M 82.766618 -0.0000542195 C 37.056825 -0.0000542195 0.000591429 37.05618 0.000591429 82.765973 C 0.000591429 128.475765 37.056825 165.531999 82.766618 165.531999 C 128.476411 165.531999 165.532645 128.475765 165.532645 82.765973 C 165.532645 37.05618 128.476411 -0.0000542195 82.766618 -0.0000542195 Z M 82.766618 -0.0000542195 " stroke="#fcfcfc" stroke-width="17.034845" stroke-opacity="1" stroke-miterlimit="4"/></g></g></svg>