<svg xmlns="http://www.w3.org/2000/svg" xmlns:xlink="http://www.w3.org/1999/xlink" width="285" zoomAndPan="magnify" viewBox="0 0 213.75 213.75" height="285" preserveAspectRatio="xMidYMid meet" version="1.0"><defs><clipPath id="512358efba"><path d="M 0 0 L 213.5 0 L 213.5 213.5 L 0 213.5 Z M 0 0 " clip-rule="nonzero"/></clipPath><clipPath id="b1ab947731"><path d="M 98 31.867188 L 181.625 31.867188 L 181.625 112 L 98 112 Z M 98 31.867188 " clip-rule="nonzero"/></clipPath></defs><g clip-path="url(#512358efba)"><path fill="#fcfcfc" d="M 106.714844 0 C 47.871094 0 0 47.875 0 106.714844 C 0 165.558594 47.871094 213.429688 106.714844 213.429688 C 165.554688 213.429688 213.429688 165.558594 213.429688 106.714844 C 213.429688 47.875 165.554688 0 106.714844 0 Z M 106.714844 210.648438 C 49.40625 210.648438 2.78125 164.023438 2.78125 106.71875 C 2.78125 49.40625 49.40625 2.785156 106.714844 2.785156 C 164.023438 2.785156 210.648438 49.410156 210.648438 106.71875 C 210.648438 164.023438 164.023438 210.648438 106.714844 210.648438 Z M 106.714844 210.648438 " fill-opacity="1" fill-rule="nonzero"/></g><path fill="#fcfcfc" d="M 106.714844 8.332031 C 52.464844 8.332031 8.332031 52.46875 8.332031 106.714844 C 8.332031 160.964844 52.464844 205.101562 106.714844 205.101562 C 160.964844 205.101562 205.097656 160.964844 205.097656 106.714844 C 205.097656 52.46875 160.964844 8.332031 106.714844 8.332031 Z M 106.714844 8.332031 " fill-opacity="1" fill-rule="nonzero"/><path fill="#000000" d="M 157.15625 92.347656 C 157.003906 92.398438 156.867188 92.472656 156.746094 92.574219 C 156.621094 92.675781 156.523438 92.796875 156.449219 92.9375 C 156.375 93.078125 156.332031 93.226562 156.316406 93.386719 C 156.304688 93.542969 156.320312 93.699219 156.367188 93.851562 C 156.699219 94.902344 157 95.960938 157.273438 97.03125 C 157.546875 98.101562 157.789062 99.175781 158 100.257812 C 158.210938 101.34375 158.394531 102.429688 158.542969 103.523438 C 158.695312 104.613281 158.816406 105.710938 158.90625 106.808594 C 159 107.910156 159.058594 109.011719 159.085938 110.113281 C 159.117188 111.214844 159.113281 112.320312 159.082031 113.421875 C 159.050781 114.523438 158.988281 115.625 158.894531 116.722656 C 158.800781 117.824219 158.675781 118.917969 158.519531 120.011719 C 158.363281 121.101562 158.179688 122.191406 157.964844 123.273438 C 157.75 124.355469 157.503906 125.429688 157.226562 126.496094 C 156.953125 127.566406 156.648438 128.625 156.3125 129.675781 C 155.980469 130.726562 155.617188 131.769531 155.222656 132.800781 C 154.832031 133.832031 154.410156 134.851562 153.960938 135.859375 C 153.511719 136.867188 153.035156 137.863281 152.53125 138.84375 C 152.023438 139.824219 151.492188 140.792969 150.933594 141.742188 C 150.375 142.695312 149.792969 143.632812 149.179688 144.550781 C 148.570312 145.46875 147.933594 146.371094 147.273438 147.257812 C 146.613281 148.140625 145.925781 149.003906 145.21875 149.851562 C 144.507812 150.699219 143.777344 151.523438 143.019531 152.328125 C 142.265625 153.132812 141.488281 153.917969 140.6875 154.679688 C 139.890625 155.445312 139.070312 156.183594 138.230469 156.898438 C 137.390625 157.617188 136.53125 158.308594 135.652344 158.980469 C 134.773438 159.648438 133.875 160.292969 132.960938 160.914062 C 132.046875 161.53125 131.117188 162.125 130.167969 162.695312 C 129.21875 163.261719 128.257812 163.800781 127.277344 164.316406 C 126.300781 164.832031 125.308594 165.320312 124.304688 165.777344 C 123.300781 166.238281 122.28125 166.667969 121.253906 167.070312 C 120.222656 167.472656 119.183594 167.847656 118.132812 168.195312 C 117.082031 168.539062 116.023438 168.855469 114.957031 169.140625 C 113.890625 169.429688 112.816406 169.683594 111.734375 169.910156 C 110.652344 170.136719 109.5625 170.335938 108.46875 170.5 C 107.378906 170.667969 106.28125 170.804688 105.179688 170.910156 C 104.078125 171.015625 102.976562 171.089844 101.871094 171.136719 C 100.769531 171.179688 99.664062 171.195312 98.558594 171.175781 C 97.453125 171.160156 96.347656 171.113281 95.246094 171.035156 C 94.140625 170.957031 93.042969 170.847656 91.945312 170.710938 C 90.847656 170.570312 89.757812 170.402344 88.667969 170.203125 C 87.582031 170 86.5 169.773438 85.425781 169.511719 C 84.351562 169.253906 83.285156 168.964844 82.226562 168.644531 C 81.167969 168.324219 80.121094 167.976562 79.082031 167.601562 C 78.042969 167.222656 77.015625 166.820312 75.996094 166.386719 C 74.980469 165.949219 73.976562 165.488281 72.988281 165 C 71.996094 164.507812 71.019531 163.992188 70.058594 163.449219 C 69.097656 162.90625 68.148438 162.335938 67.21875 161.738281 C 66.289062 161.140625 65.378906 160.519531 64.480469 159.875 C 63.585938 159.226562 62.710938 158.554688 61.851562 157.859375 C 60.992188 157.164062 60.15625 156.445312 59.335938 155.703125 C 58.519531 154.960938 57.722656 154.195312 56.949219 153.410156 C 56.171875 152.625 55.417969 151.816406 54.6875 150.988281 C 53.957031 150.160156 53.25 149.3125 52.570312 148.445312 C 51.886719 147.578125 51.226562 146.691406 50.59375 145.789062 C 49.960938 144.886719 49.351562 143.964844 48.769531 143.027344 C 48.1875 142.089844 47.628906 141.136719 47.101562 140.167969 C 46.570312 139.199219 46.070312 138.21875 45.59375 137.222656 C 45.121094 136.226562 44.675781 135.214844 44.253906 134.195312 C 43.835938 133.175781 43.449219 132.140625 43.085938 131.097656 C 42.726562 130.058594 42.394531 129.003906 42.09375 127.945312 C 41.789062 126.882812 41.519531 125.8125 41.273438 124.738281 C 41.03125 123.660156 40.820312 122.578125 40.636719 121.492188 C 40.457031 120.402344 40.304688 119.3125 40.183594 118.214844 C 40.058594 117.117188 39.96875 116.019531 39.910156 114.917969 C 39.847656 113.816406 39.820312 112.714844 39.820312 111.613281 C 39.820312 110.507812 39.855469 109.40625 39.917969 108.304688 C 39.980469 107.203125 40.074219 106.105469 40.195312 105.007812 C 40.320312 103.914062 40.472656 102.820312 40.660156 101.734375 C 40.84375 100.644531 41.058594 99.566406 41.304688 98.488281 C 41.550781 97.414062 41.824219 96.34375 42.128906 95.285156 C 42.433594 94.226562 42.765625 93.171875 43.128906 92.132812 C 43.492188 91.089844 43.886719 90.058594 44.304688 89.039062 C 44.726562 88.019531 45.175781 87.011719 45.652344 86.015625 C 46.128906 85.019531 46.632812 84.039062 47.164062 83.070312 C 47.695312 82.105469 48.253906 81.152344 48.839844 80.214844 C 49.421875 79.28125 50.03125 78.359375 50.667969 77.457031 C 51.304688 76.554688 51.964844 75.671875 52.648438 74.804688 C 53.335938 73.941406 54.042969 73.09375 54.777344 72.269531 C 55.507812 71.441406 56.261719 70.636719 57.039062 69.851562 C 57.816406 69.066406 58.613281 68.304688 59.433594 67.5625 C 60.253906 66.824219 61.09375 66.105469 61.953125 65.414062 C 62.8125 64.71875 63.691406 64.050781 64.589844 63.40625 C 65.484375 62.757812 66.398438 62.140625 67.332031 61.546875 C 68.261719 60.953125 69.210938 60.382812 70.171875 59.839844 C 71.136719 59.300781 72.113281 58.785156 73.105469 58.296875 C 74.097656 57.808594 75.101562 57.351562 76.117188 56.917969 C 77.136719 56.488281 78.164062 56.082031 79.203125 55.710938 C 80.242188 55.335938 81.292969 54.988281 82.351562 54.671875 C 83.410156 54.355469 84.480469 54.070312 85.554688 53.8125 C 86.628906 53.554688 87.710938 53.328125 88.796875 53.128906 C 89.886719 52.933594 90.980469 52.765625 92.074219 52.628906 C 93.171875 52.492188 94.273438 52.386719 95.375 52.3125 C 96.480469 52.234375 97.582031 52.191406 98.6875 52.175781 C 99.792969 52.160156 100.898438 52.179688 102.003906 52.226562 C 103.109375 52.273438 104.210938 52.347656 105.3125 52.457031 C 106.410156 52.566406 107.507812 52.703125 108.601562 52.875 C 109.691406 53.042969 110.78125 53.242188 111.863281 53.46875 C 112.941406 53.699219 114.015625 53.957031 115.085938 54.246094 C 116.152344 54.535156 117.210938 54.855469 118.257812 55.203125 C 118.410156 55.253906 118.566406 55.273438 118.726562 55.265625 C 118.886719 55.253906 119.039062 55.214844 119.183594 55.144531 C 119.328125 55.074219 119.453125 54.976562 119.558594 54.859375 C 119.664062 54.738281 119.746094 54.601562 119.796875 54.453125 C 119.847656 54.300781 119.863281 54.144531 119.851562 53.984375 C 119.839844 53.824219 119.796875 53.671875 119.726562 53.527344 C 119.652344 53.386719 119.558594 53.261719 119.4375 53.15625 C 119.316406 53.046875 119.179688 52.96875 119.027344 52.917969 C 117.9375 52.554688 116.839844 52.226562 115.730469 51.925781 C 114.621094 51.628906 113.503906 51.359375 112.382812 51.121094 C 111.257812 50.882812 110.128906 50.679688 108.996094 50.503906 C 107.859375 50.328125 106.71875 50.183594 105.578125 50.074219 C 104.433594 49.960938 103.289062 49.882812 102.140625 49.832031 C 100.996094 49.785156 99.847656 49.769531 98.699219 49.785156 C 97.550781 49.800781 96.402344 49.847656 95.257812 49.925781 C 94.113281 50.003906 92.96875 50.117188 91.828125 50.257812 C 90.691406 50.402344 89.554688 50.574219 88.425781 50.78125 C 87.296875 50.984375 86.171875 51.222656 85.054688 51.492188 C 83.941406 51.757812 82.832031 52.054688 81.730469 52.386719 C 80.632812 52.714844 79.542969 53.074219 78.460938 53.464844 C 77.382812 53.855469 76.3125 54.273438 75.257812 54.722656 C 74.199219 55.171875 73.15625 55.648438 72.125 56.15625 C 71.097656 56.664062 70.082031 57.195312 69.082031 57.761719 C 68.082031 58.324219 67.097656 58.914062 66.128906 59.53125 C 65.164062 60.148438 64.214844 60.792969 63.28125 61.464844 C 62.351562 62.132812 61.4375 62.828125 60.546875 63.550781 C 59.652344 64.269531 58.78125 65.015625 57.929688 65.785156 C 57.078125 66.554688 56.25 67.347656 55.445312 68.164062 C 54.636719 68.976562 53.851562 69.8125 53.09375 70.671875 C 52.332031 71.53125 51.597656 72.410156 50.886719 73.308594 C 50.175781 74.210938 49.488281 75.128906 48.828125 76.066406 C 48.167969 77.003906 47.535156 77.957031 46.925781 78.929688 C 46.320312 79.902344 45.742188 80.894531 45.1875 81.898438 C 44.636719 82.902344 44.113281 83.921875 43.621094 84.957031 C 43.125 85.988281 42.660156 87.035156 42.222656 88.097656 C 41.785156 89.15625 41.378906 90.226562 41 91.308594 C 40.625 92.390625 40.277344 93.484375 39.960938 94.585938 C 39.644531 95.6875 39.359375 96.796875 39.105469 97.914062 C 38.851562 99.03125 38.628906 100.152344 38.4375 101.285156 C 38.246094 102.414062 38.085938 103.546875 37.957031 104.6875 C 37.828125 105.824219 37.730469 106.964844 37.664062 108.109375 C 37.601562 109.253906 37.566406 110.398438 37.566406 111.542969 C 37.566406 112.691406 37.597656 113.835938 37.660156 114.980469 C 37.722656 116.125 37.816406 117.265625 37.941406 118.402344 C 38.066406 119.542969 38.226562 120.675781 38.414062 121.808594 C 38.605469 122.9375 38.824219 124.0625 39.078125 125.179688 C 39.328125 126.296875 39.613281 127.40625 39.925781 128.507812 C 40.242188 129.609375 40.585938 130.703125 40.960938 131.785156 C 41.335938 132.871094 41.738281 133.941406 42.175781 135 C 42.609375 136.0625 43.070312 137.109375 43.566406 138.144531 C 44.058594 139.179688 44.578125 140.199219 45.128906 141.207031 C 45.679688 142.210938 46.257812 143.203125 46.859375 144.175781 C 47.464844 145.148438 48.097656 146.105469 48.757812 147.046875 C 49.414062 147.984375 50.097656 148.902344 50.808594 149.804688 C 51.515625 150.707031 52.25 151.585938 53.011719 152.445312 C 53.769531 153.308594 54.550781 154.144531 55.355469 154.960938 C 56.160156 155.78125 56.988281 156.574219 57.839844 157.34375 C 58.6875 158.117188 59.558594 158.863281 60.449219 159.585938 C 61.339844 160.308594 62.25 161.003906 63.179688 161.675781 C 64.109375 162.347656 65.058594 162.996094 66.023438 163.613281 C 66.992188 164.234375 67.972656 164.828125 68.972656 165.390625 C 69.972656 165.957031 70.984375 166.492188 72.015625 167.003906 C 73.042969 167.511719 74.085938 167.992188 75.140625 168.441406 C 76.195312 168.894531 77.265625 169.316406 78.34375 169.707031 C 79.421875 170.097656 80.511719 170.460938 81.609375 170.792969 C 82.710938 171.125 83.816406 171.425781 84.933594 171.695312 C 86.050781 171.964844 87.171875 172.203125 88.300781 172.410156 C 89.433594 172.617188 90.566406 172.792969 91.707031 172.941406 C 92.84375 173.085938 93.988281 173.199219 95.132812 173.277344 C 96.277344 173.359375 97.425781 173.410156 98.574219 173.429688 C 99.722656 173.445312 100.871094 173.429688 102.015625 173.386719 C 103.164062 173.339844 104.308594 173.261719 105.453125 173.152344 C 106.597656 173.042969 107.734375 172.902344 108.871094 172.730469 C 110.003906 172.558594 111.136719 172.355469 112.257812 172.117188 C 113.382812 171.882812 114.5 171.617188 115.609375 171.320312 C 116.71875 171.023438 117.816406 170.695312 118.910156 170.335938 C 120 169.980469 121.078125 169.589844 122.148438 169.171875 C 123.21875 168.753906 124.273438 168.308594 125.320312 167.832031 C 126.363281 167.351562 127.394531 166.847656 128.410156 166.3125 C 129.425781 165.78125 130.425781 165.21875 131.410156 164.628906 C 132.394531 164.039062 133.363281 163.425781 134.316406 162.78125 C 135.265625 162.136719 136.195312 161.46875 137.109375 160.773438 C 138.023438 160.078125 138.917969 159.359375 139.789062 158.617188 C 140.664062 157.871094 141.515625 157.105469 142.34375 156.3125 C 143.175781 155.519531 143.984375 154.707031 144.769531 153.871094 C 145.554688 153.035156 146.316406 152.175781 147.050781 151.296875 C 147.789062 150.421875 148.5 149.523438 149.1875 148.605469 C 149.875 147.6875 150.535156 146.75 151.171875 145.792969 C 151.808594 144.839844 152.414062 143.867188 152.996094 142.878906 C 153.578125 141.890625 154.128906 140.886719 154.652344 139.867188 C 155.179688 138.851562 155.675781 137.816406 156.144531 136.769531 C 156.609375 135.722656 157.046875 134.664062 157.457031 133.59375 C 157.863281 132.523438 158.242188 131.441406 158.589844 130.351562 C 158.9375 129.257812 159.257812 128.15625 159.542969 127.046875 C 159.832031 125.9375 160.085938 124.820312 160.3125 123.699219 C 160.535156 122.574219 160.726562 121.445312 160.890625 120.3125 C 161.050781 119.175781 161.183594 118.039062 161.28125 116.898438 C 161.378906 115.757812 161.445312 114.613281 161.480469 113.46875 C 161.515625 112.320312 161.515625 111.175781 161.488281 110.03125 C 161.457031 108.886719 161.398438 107.742188 161.304688 106.601562 C 161.210938 105.457031 161.085938 104.320312 160.929688 103.183594 C 160.773438 102.050781 160.585938 100.917969 160.367188 99.792969 C 160.148438 98.671875 159.894531 97.550781 159.613281 96.441406 C 159.332031 95.332031 159.019531 94.230469 158.675781 93.136719 C 158.628906 92.984375 158.550781 92.847656 158.449219 92.722656 C 158.34375 92.601562 158.222656 92.503906 158.078125 92.429688 C 157.9375 92.355469 157.785156 92.3125 157.625 92.296875 C 157.464844 92.285156 157.308594 92.300781 157.15625 92.347656 Z M 157.15625 92.347656 " fill-opacity="1" fill-rule="nonzero"/><path fill="#000000" d="M 99.410156 92.582031 C 100.898438 92.585938 102.367188 92.765625 103.8125 93.117188 C 104.128906 93.164062 104.414062 93.101562 104.679688 92.925781 C 104.941406 92.746094 105.109375 92.503906 105.183594 92.195312 C 105.257812 91.886719 105.214844 91.59375 105.058594 91.316406 C 104.902344 91.042969 104.671875 90.855469 104.367188 90.761719 C 102.738281 90.375 101.085938 90.175781 99.410156 90.171875 C 98.707031 90.171875 98.003906 90.203125 97.304688 90.273438 C 96.605469 90.34375 95.910156 90.445312 95.21875 90.582031 C 94.527344 90.71875 93.847656 90.890625 93.175781 91.09375 C 92.5 91.296875 91.839844 91.535156 91.1875 91.800781 C 90.539062 92.070312 89.902344 92.371094 89.285156 92.703125 C 88.664062 93.03125 88.0625 93.390625 87.476562 93.78125 C 86.890625 94.171875 86.328125 94.589844 85.78125 95.035156 C 85.238281 95.480469 84.71875 95.953125 84.21875 96.449219 C 83.722656 96.945312 83.25 97.464844 82.804688 98.007812 C 82.359375 98.546875 81.941406 99.113281 81.550781 99.695312 C 81.160156 100.277344 80.796875 100.878906 80.464844 101.5 C 80.132812 102.117188 79.832031 102.75 79.5625 103.398438 C 79.296875 104.046875 79.058594 104.707031 78.855469 105.378906 C 78.648438 106.050781 78.480469 106.730469 78.34375 107.421875 C 78.203125 108.109375 78.101562 108.800781 78.03125 109.5 C 77.964844 110.199219 77.929688 110.898438 77.929688 111.601562 C 77.929688 112.304688 77.964844 113.003906 78.03125 113.703125 C 78.101562 114.402344 78.203125 115.09375 78.34375 115.78125 C 78.480469 116.472656 78.648438 117.152344 78.855469 117.824219 C 79.058594 118.496094 79.296875 119.15625 79.5625 119.804688 C 79.832031 120.453125 80.132812 121.085938 80.464844 121.703125 C 80.796875 122.324219 81.160156 122.925781 81.550781 123.507812 C 81.941406 124.089844 82.359375 124.65625 82.804688 125.199219 C 83.25 125.738281 83.722656 126.257812 84.21875 126.753906 C 84.71875 127.25 85.238281 127.722656 85.78125 128.167969 C 86.328125 128.613281 86.890625 129.03125 87.476562 129.421875 C 88.0625 129.8125 88.664062 130.171875 89.285156 130.503906 C 89.902344 130.832031 90.539062 131.132812 91.1875 131.402344 C 91.839844 131.667969 92.5 131.90625 93.175781 132.109375 C 93.847656 132.3125 94.527344 132.484375 95.21875 132.621094 C 95.910156 132.757812 96.605469 132.859375 97.304688 132.929688 C 98.003906 133 98.707031 133.03125 99.410156 133.03125 C 100.113281 133.03125 100.816406 133 101.515625 132.929688 C 102.214844 132.859375 102.910156 132.757812 103.601562 132.621094 C 104.289062 132.484375 104.972656 132.3125 105.644531 132.109375 C 106.316406 131.90625 106.980469 131.667969 107.628906 131.402344 C 108.28125 131.132812 108.914062 130.832031 109.535156 130.503906 C 110.15625 130.171875 110.757812 129.8125 111.34375 129.421875 C 111.929688 129.03125 112.492188 128.613281 113.035156 128.167969 C 113.582031 127.722656 114.101562 127.25 114.597656 126.753906 C 115.097656 126.257812 115.566406 125.738281 116.015625 125.199219 C 116.460938 124.65625 116.878906 124.089844 117.269531 123.507812 C 117.660156 122.925781 118.023438 122.324219 118.351562 121.703125 C 118.683594 121.085938 118.984375 120.453125 119.253906 119.804688 C 119.523438 119.15625 119.761719 118.496094 119.964844 117.824219 C 120.167969 117.152344 120.339844 116.472656 120.476562 115.78125 C 120.613281 115.09375 120.71875 114.402344 120.785156 113.703125 C 120.855469 113.003906 120.890625 112.304688 120.890625 111.601562 C 120.894531 110.207031 120.757812 108.824219 120.476562 107.457031 C 120.449219 107.300781 120.386719 107.15625 120.300781 107.023438 C 120.210938 106.890625 120.101562 106.78125 119.96875 106.691406 C 119.835938 106.601562 119.691406 106.542969 119.535156 106.511719 C 119.378906 106.480469 119.21875 106.480469 119.0625 106.511719 C 118.90625 106.542969 118.761719 106.601562 118.628906 106.6875 C 118.496094 106.777344 118.382812 106.886719 118.296875 107.019531 C 118.207031 107.152344 118.144531 107.296875 118.113281 107.453125 C 118.082031 107.609375 118.082031 107.765625 118.117188 107.921875 C 118.347656 109.136719 118.46875 110.363281 118.472656 111.601562 C 118.472656 112.226562 118.445312 112.847656 118.382812 113.46875 C 118.324219 114.089844 118.230469 114.707031 118.109375 115.316406 C 117.988281 115.929688 117.835938 116.535156 117.65625 117.132812 C 117.476562 117.726562 117.265625 118.316406 117.027344 118.890625 C 116.789062 119.46875 116.519531 120.03125 116.226562 120.582031 C 115.933594 121.132812 115.613281 121.667969 115.265625 122.183594 C 114.917969 122.703125 114.546875 123.203125 114.148438 123.6875 C 113.753906 124.167969 113.335938 124.632812 112.894531 125.074219 C 112.449219 125.515625 111.988281 125.933594 111.503906 126.328125 C 111.023438 126.726562 110.519531 127.097656 110 127.441406 C 109.480469 127.789062 108.945312 128.109375 108.394531 128.40625 C 107.84375 128.699219 107.28125 128.964844 106.703125 129.203125 C 106.125 129.445312 105.535156 129.652344 104.9375 129.835938 C 104.339844 130.015625 103.734375 130.167969 103.121094 130.289062 C 102.507812 130.410156 101.890625 130.503906 101.269531 130.566406 C 100.648438 130.625 100.023438 130.65625 99.398438 130.65625 C 98.773438 130.65625 98.148438 130.628906 97.527344 130.566406 C 96.90625 130.503906 96.285156 130.414062 95.671875 130.292969 C 95.058594 130.171875 94.453125 130.019531 93.855469 129.839844 C 93.257812 129.65625 92.667969 129.449219 92.09375 129.210938 C 91.515625 128.96875 90.949219 128.703125 90.398438 128.410156 C 89.847656 128.117188 89.3125 127.796875 88.792969 127.449219 C 88.273438 127.101562 87.769531 126.730469 87.285156 126.335938 C 86.804688 125.941406 86.339844 125.523438 85.898438 125.082031 C 85.457031 124.640625 85.039062 124.179688 84.640625 123.695312 C 84.246094 123.214844 83.871094 122.714844 83.523438 122.195312 C 83.175781 121.675781 82.855469 121.140625 82.5625 120.59375 C 82.265625 120.042969 82 119.476562 81.761719 118.902344 C 81.523438 118.324219 81.3125 117.738281 81.128906 117.140625 C 80.949219 116.546875 80.796875 115.941406 80.675781 115.328125 C 80.554688 114.71875 80.460938 114.101562 80.402344 113.480469 C 80.339844 112.859375 80.308594 112.238281 80.308594 111.613281 C 80.308594 110.988281 80.339844 110.367188 80.402344 109.746094 C 80.464844 109.125 80.554688 108.511719 80.679688 107.898438 C 80.800781 107.285156 80.953125 106.683594 81.132812 106.085938 C 81.316406 105.488281 81.527344 104.902344 81.765625 104.324219 C 82.003906 103.75 82.273438 103.1875 82.566406 102.636719 C 82.863281 102.085938 83.183594 101.550781 83.53125 101.035156 C 83.878906 100.515625 84.25 100.015625 84.648438 99.535156 C 85.046875 99.050781 85.464844 98.589844 85.90625 98.148438 C 86.351562 97.707031 86.8125 97.289062 87.296875 96.894531 C 87.78125 96.5 88.28125 96.128906 88.800781 95.78125 C 89.320312 95.4375 89.859375 95.117188 90.410156 94.824219 C 90.960938 94.53125 91.527344 94.261719 92.101562 94.023438 C 92.679688 93.785156 93.269531 93.578125 93.867188 93.398438 C 94.464844 93.214844 95.070312 93.066406 95.683594 92.945312 C 96.296875 92.824219 96.917969 92.730469 97.539062 92.671875 C 98.160156 92.609375 98.785156 92.582031 99.410156 92.582031 Z M 99.410156 92.582031 " fill-opacity="1" fill-rule="nonzero"/><path fill="#000000" d="M 113.390625 73.597656 C 113.4375 73.445312 113.457031 73.289062 113.441406 73.132812 C 113.429688 72.972656 113.386719 72.824219 113.316406 72.679688 C 113.242188 72.539062 113.148438 72.417969 113.027344 72.3125 C 112.90625 72.207031 112.769531 72.128906 112.621094 72.078125 C 108.332031 70.644531 103.929688 69.929688 99.410156 69.9375 C 97.957031 69.941406 96.503906 70.019531 95.058594 70.175781 C 93.613281 70.332031 92.179688 70.5625 90.757812 70.867188 C 89.335938 71.171875 87.933594 71.550781 86.550781 72 C 85.171875 72.453125 83.816406 72.972656 82.488281 73.566406 C 81.160156 74.160156 79.867188 74.820312 78.609375 75.546875 C 77.351562 76.273438 76.132812 77.066406 74.957031 77.917969 C 73.78125 78.773438 72.65625 79.6875 71.574219 80.65625 C 70.496094 81.628906 69.46875 82.65625 68.496094 83.734375 C 67.523438 84.8125 66.609375 85.9375 65.757812 87.113281 C 64.902344 88.285156 64.113281 89.503906 63.382812 90.757812 C 62.65625 92.015625 61.996094 93.304688 61.40625 94.632812 C 60.8125 95.957031 60.292969 97.308594 59.84375 98.6875 C 59.390625 100.066406 59.015625 101.46875 58.710938 102.886719 C 58.40625 104.304688 58.179688 105.734375 58.023438 107.179688 C 57.871094 108.621094 57.792969 110.066406 57.792969 111.519531 C 57.789062 112.96875 57.863281 114.417969 58.011719 115.859375 C 58.160156 117.304688 58.386719 118.734375 58.683594 120.15625 C 58.984375 121.574219 59.355469 122.976562 59.800781 124.355469 C 60.25 125.738281 60.765625 127.089844 61.351562 128.417969 C 61.941406 129.746094 62.597656 131.039062 63.320312 132.296875 C 64.042969 133.554688 64.828125 134.773438 65.679688 135.949219 C 66.53125 137.125 67.441406 138.253906 68.410156 139.335938 C 69.378906 140.417969 70.402344 141.449219 71.480469 142.421875 C 72.554688 143.398438 73.679688 144.3125 74.855469 145.171875 C 76.027344 146.03125 77.242188 146.824219 78.496094 147.554688 C 79.753906 148.285156 81.042969 148.949219 82.371094 149.546875 C 83.695312 150.144531 85.046875 150.671875 86.429688 151.125 C 87.808594 151.582031 89.210938 151.964844 90.632812 152.273438 C 92.050781 152.582031 93.484375 152.816406 94.929688 152.976562 C 96.375 153.136719 97.824219 153.222656 99.28125 153.230469 C 100.734375 153.238281 102.183594 153.171875 103.632812 153.03125 C 105.078125 152.886719 106.515625 152.671875 107.941406 152.378906 C 109.363281 152.085938 110.769531 151.71875 112.15625 151.28125 C 113.542969 150.84375 114.902344 150.332031 116.234375 149.753906 C 117.566406 149.171875 118.867188 148.523438 120.128906 147.808594 C 121.394531 147.09375 122.621094 146.3125 123.800781 145.46875 C 124.984375 144.625 126.121094 143.722656 127.210938 142.761719 C 128.300781 141.800781 129.335938 140.785156 130.316406 139.714844 C 131.300781 138.644531 132.222656 137.527344 133.085938 136.359375 C 133.953125 135.191406 134.753906 133.984375 135.492188 132.734375 C 136.230469 131.484375 136.902344 130.199219 137.507812 128.878906 C 138.109375 127.5625 138.644531 126.214844 139.105469 124.835938 C 139.570312 123.460938 139.960938 122.066406 140.277344 120.652344 C 140.59375 119.234375 140.835938 117.804688 141 116.363281 C 141.167969 114.921875 141.257812 113.476562 141.273438 112.027344 C 141.289062 110.574219 141.230469 109.128906 141.09375 107.683594 C 140.957031 106.238281 140.746094 104.804688 140.460938 103.382812 C 140.175781 101.960938 139.8125 100.554688 139.378906 99.171875 C 139.257812 98.882812 139.054688 98.675781 138.769531 98.546875 C 138.484375 98.414062 138.191406 98.398438 137.894531 98.492188 C 137.59375 98.585938 137.367188 98.769531 137.210938 99.039062 C 137.050781 99.308594 137.007812 99.597656 137.070312 99.902344 C 137.289062 100.597656 137.488281 101.300781 137.667969 102.003906 C 137.847656 102.710938 138.007812 103.421875 138.144531 104.136719 C 138.285156 104.851562 138.40625 105.570312 138.503906 106.292969 C 138.605469 107.011719 138.683594 107.738281 138.742188 108.460938 C 138.800781 109.1875 138.839844 109.914062 138.859375 110.644531 C 138.878906 111.371094 138.875 112.097656 138.855469 112.828125 C 138.832031 113.554688 138.789062 114.28125 138.726562 115.007812 C 138.664062 115.734375 138.582031 116.457031 138.480469 117.175781 C 138.375 117.898438 138.253906 118.617188 138.109375 119.332031 C 137.96875 120.042969 137.804688 120.753906 137.625 121.460938 C 137.441406 122.164062 137.238281 122.863281 137.019531 123.558594 C 136.796875 124.253906 136.554688 124.941406 136.296875 125.621094 C 136.035156 126.300781 135.757812 126.972656 135.460938 127.640625 C 135.164062 128.304688 134.847656 128.960938 134.515625 129.609375 C 134.179688 130.257812 133.832031 130.894531 133.460938 131.523438 C 133.089844 132.152344 132.707031 132.769531 132.300781 133.375 C 131.898438 133.980469 131.476562 134.578125 131.039062 135.160156 C 130.605469 135.742188 130.152344 136.316406 129.683594 136.875 C 129.214844 137.433594 128.730469 137.976562 128.230469 138.507812 C 127.730469 139.039062 127.21875 139.558594 126.691406 140.058594 C 126.164062 140.5625 125.621094 141.050781 125.066406 141.523438 C 124.511719 141.996094 123.941406 142.453125 123.363281 142.894531 C 122.78125 143.335938 122.1875 143.761719 121.585938 144.171875 C 120.980469 144.578125 120.367188 144.972656 119.738281 145.34375 C 119.113281 145.71875 118.476562 146.078125 117.832031 146.414062 C 117.183594 146.753906 116.53125 147.074219 115.867188 147.378906 C 115.203125 147.679688 114.53125 147.964844 113.851562 148.230469 C 113.171875 148.496094 112.484375 148.742188 111.792969 148.972656 C 111.097656 149.199219 110.398438 149.40625 109.695312 149.59375 C 108.988281 149.785156 108.277344 149.953125 107.566406 150.101562 C 106.851562 150.25 106.132812 150.382812 105.410156 150.492188 C 104.6875 150.601562 103.964844 150.6875 103.238281 150.757812 C 102.511719 150.828125 101.785156 150.875 101.054688 150.90625 C 100.324219 150.933594 99.59375 150.941406 98.863281 150.933594 C 98.136719 150.921875 97.40625 150.886719 96.679688 150.835938 C 95.949219 150.785156 95.222656 150.710938 94.5 150.621094 C 93.777344 150.527344 93.054688 150.414062 92.335938 150.28125 C 91.621094 150.152344 90.90625 150 90.195312 149.828125 C 89.488281 149.65625 88.78125 149.464844 88.085938 149.253906 C 87.386719 149.042969 86.695312 148.8125 86.007812 148.5625 C 85.320312 148.3125 84.644531 148.042969 83.972656 147.757812 C 83.300781 147.46875 82.640625 147.164062 81.984375 146.839844 C 81.332031 146.515625 80.6875 146.175781 80.050781 145.816406 C 79.417969 145.457031 78.792969 145.082031 78.179688 144.6875 C 77.566406 144.292969 76.964844 143.882812 76.371094 143.453125 C 75.78125 143.027344 75.203125 142.582031 74.636719 142.121094 C 74.070312 141.664062 73.515625 141.1875 72.976562 140.699219 C 72.4375 140.207031 71.910156 139.703125 71.402344 139.183594 C 70.890625 138.664062 70.390625 138.128906 69.910156 137.582031 C 69.429688 137.035156 68.960938 136.476562 68.511719 135.902344 C 68.0625 135.332031 67.625 134.746094 67.207031 134.148438 C 66.789062 133.550781 66.390625 132.941406 66.003906 132.324219 C 65.621094 131.703125 65.253906 131.074219 64.90625 130.433594 C 64.554688 129.796875 64.226562 129.148438 63.914062 128.488281 C 63.597656 127.832031 63.304688 127.164062 63.027344 126.492188 C 62.753906 125.816406 62.496094 125.132812 62.257812 124.445312 C 62.019531 123.757812 61.800781 123.0625 61.605469 122.363281 C 61.40625 121.660156 61.226562 120.957031 61.066406 120.246094 C 60.90625 119.535156 60.765625 118.820312 60.644531 118.101562 C 60.527344 117.382812 60.425781 116.664062 60.347656 115.9375 C 60.265625 115.214844 60.207031 114.488281 60.167969 113.761719 C 60.128906 113.035156 60.109375 112.304688 60.109375 111.578125 C 60.113281 110.851562 60.132812 110.121094 60.175781 109.394531 C 60.21875 108.667969 60.277344 107.941406 60.363281 107.21875 C 60.445312 106.496094 60.546875 105.773438 60.667969 105.058594 C 60.789062 104.339844 60.933594 103.625 61.09375 102.914062 C 61.257812 102.203125 61.441406 101.5 61.640625 100.800781 C 61.84375 100.097656 62.0625 99.40625 62.304688 98.71875 C 62.542969 98.03125 62.804688 97.351562 63.082031 96.675781 C 63.359375 96.003906 63.65625 95.335938 63.972656 94.679688 C 64.285156 94.023438 64.621094 93.375 64.972656 92.738281 C 65.324219 92.101562 65.691406 91.472656 66.078125 90.851562 C 66.464844 90.234375 66.867188 89.628906 67.285156 89.035156 C 67.707031 88.4375 68.144531 87.855469 68.597656 87.28125 C 69.050781 86.710938 69.515625 86.152344 70 85.609375 C 70.484375 85.0625 70.984375 84.53125 71.496094 84.011719 C 72.011719 83.496094 72.539062 82.992188 73.078125 82.503906 C 73.621094 82.015625 74.175781 81.542969 74.742188 81.085938 C 75.3125 80.625 75.890625 80.183594 76.484375 79.761719 C 77.074219 79.335938 77.679688 78.925781 78.292969 78.535156 C 78.910156 78.140625 79.535156 77.765625 80.171875 77.410156 C 80.808594 77.050781 81.453125 76.714844 82.109375 76.390625 C 82.761719 76.070312 83.425781 75.765625 84.097656 75.480469 C 84.769531 75.199219 85.449219 74.933594 86.136719 74.683594 C 86.824219 74.4375 87.515625 74.210938 88.214844 74 C 88.914062 73.792969 89.621094 73.605469 90.328125 73.433594 C 91.039062 73.265625 91.753906 73.117188 92.472656 72.984375 C 93.191406 72.855469 93.910156 72.746094 94.636719 72.65625 C 95.359375 72.566406 96.085938 72.496094 96.816406 72.449219 C 97.542969 72.398438 98.273438 72.367188 99.003906 72.359375 C 99.730469 72.351562 100.460938 72.363281 101.191406 72.394531 C 101.921875 72.425781 102.648438 72.476562 103.375 72.546875 C 104.101562 72.621094 104.824219 72.710938 105.546875 72.824219 C 106.265625 72.9375 106.984375 73.066406 107.699219 73.21875 C 108.414062 73.371094 109.121094 73.542969 109.828125 73.734375 C 110.53125 73.925781 111.230469 74.136719 111.921875 74.367188 C 112.230469 74.445312 112.523438 74.410156 112.804688 74.261719 C 113.085938 74.117188 113.28125 73.894531 113.390625 73.597656 Z M 113.390625 73.597656 " fill-opacity="1" fill-rule="nonzero"/><g clip-path="url(#b1ab947731)"><path fill="#000000" d="M 98.585938 109.496094 C 98.40625 109.664062 98.289062 109.867188 98.234375 110.105469 C 98.179688 110.347656 98.199219 110.582031 98.289062 110.808594 C 98.378906 111.039062 98.527344 111.222656 98.734375 111.359375 C 98.9375 111.5 99.164062 111.566406 99.410156 111.566406 C 99.738281 111.570312 100.015625 111.457031 100.25 111.226562 L 129.605469 83.152344 C 130.074219 83.816406 130.667969 84.328125 131.398438 84.6875 C 131.488281 84.6875 138.054688 84.992188 144.570312 84.992188 C 150.496094 84.992188 156.386719 84.757812 157.28125 83.9375 C 157.53125 83.707031 181.679688 59.898438 181.695312 56.757812 C 181.695312 53.183594 179.726562 52.433594 174.929688 51.917969 C 172.476562 51.667969 169.257812 51.542969 166.429688 51.433594 C 164.636719 51.433594 162.347656 51.292969 161.273438 51.183594 C 161.273438 50.453125 161.398438 49.167969 161.488281 48.09375 C 161.859375 44.988281 161.941406 41.875 161.738281 38.753906 C 161.308594 33.984375 160.519531 31.984375 157.011719 31.984375 C 153.828125 31.984375 129.984375 56.132812 129.75 56.382812 C 128.230469 58.042969 128.710938 74.632812 128.980469 80.417969 Z M 174.75 54.328125 C 179.371094 54.808594 179.371094 55.34375 179.371094 56.578125 C 178.546875 59.113281 158.660156 79.402344 155.832031 81.992188 C 153.523438 82.757812 134.691406 82.527344 132.203125 82.292969 C 131.878906 82.046875 131.597656 81.753906 131.363281 81.417969 L 160.609375 53.503906 C 162.539062 53.714844 164.472656 53.828125 166.410156 53.84375 C 169.203125 53.953125 172.371094 54.078125 174.75 54.328125 Z M 131.628906 57.898438 C 134.296875 55.078125 154.613281 35.21875 156.976562 34.398438 C 158.371094 34.398438 158.929688 34.398438 159.410156 39.003906 C 159.589844 41.988281 159.507812 44.964844 159.160156 47.933594 C 159 49.222656 158.929688 50.511719 158.945312 51.808594 L 131.148438 78.417969 C 130.984375 72.292969 130.984375 59.773438 131.628906 57.898438 Z M 131.628906 57.898438 " fill-opacity="1" fill-rule="nonzero"/></g></svg>