<svg xmlns="http://www.w3.org/2000/svg" xmlns:xlink="http://www.w3.org/1999/xlink" width="285" zoomAndPan="magnify" viewBox="0 0 213.75 213.75" height="285" preserveAspectRatio="xMidYMid meet" version="1.0"><defs><clipPath id="e39f3f8328"><path d="M 0 0 L 213.5 0 L 213.5 213.5 L 0 213.5 Z M 0 0 " clip-rule="nonzero"/></clipPath><clipPath id="1e0584e18d"><path d="M 121 64 L 170.285156 64 L 170.285156 108 L 121 108 Z M 121 64 " clip-rule="nonzero"/></clipPath><clipPath id="97c80e871b"><path d="M 82 42.066406 L 132 42.066406 L 132 85 L 82 85 Z M 82 42.066406 " clip-rule="nonzero"/></clipPath><clipPath id="8238640c52"><path d="M 82 132 L 132 132 L 132 175.410156 L 82 175.410156 Z M 82 132 " clip-rule="nonzero"/></clipPath><clipPath id="023ca35328"><path d="M 121 109 L 170.285156 109 L 170.285156 153 L 121 153 Z M 121 109 " clip-rule="nonzero"/></clipPath></defs><g clip-path="url(#e39f3f8328)"><path fill="#fcfcfc" d="M 106.714844 0 C 47.871094 0 0 47.875 0 106.714844 C 0 165.558594 47.871094 213.429688 106.714844 213.429688 C 165.554688 213.429688 213.429688 165.558594 213.429688 106.714844 C 213.429688 47.875 165.554688 0 106.714844 0 Z M 106.714844 210.648438 C 49.40625 210.648438 2.78125 164.023438 2.78125 106.71875 C 2.78125 49.40625 49.40625 2.785156 106.714844 2.785156 C 164.023438 2.785156 210.648438 49.410156 210.648438 106.71875 C 210.648438 164.023438 164.023438 210.648438 106.714844 210.648438 Z M 106.714844 210.648438 " fill-opacity="1" fill-rule="nonzero"/></g><path fill="#fcfcfc" d="M 106.714844 8.332031 C 52.464844 8.332031 8.332031 52.46875 8.332031 106.714844 C 8.332031 160.964844 52.464844 205.101562 106.714844 205.101562 C 160.964844 205.101562 205.097656 160.964844 205.097656 106.714844 C 205.097656 52.46875 160.964844 8.332031 106.714844 8.332031 Z M 106.714844 8.332031 " fill-opacity="1" fill-rule="nonzero"/><g clip-path="url(#1e0584e18d)"><path fill="#000000" d="M 157.601562 107.527344 L 133.789062 107.527344 C 133.527344 107.527344 133.289062 107.386719 133.15625 107.160156 L 121.253906 86.472656 C 121.121094 86.246094 121.121094 85.964844 121.253906 85.738281 L 133.15625 65.050781 C 133.289062 64.824219 133.527344 64.683594 133.789062 64.683594 L 157.601562 64.683594 C 157.863281 64.683594 158.105469 64.824219 158.234375 65.050781 L 170.140625 85.738281 C 170.269531 85.964844 170.269531 86.246094 170.140625 86.472656 L 158.234375 107.160156 C 158.105469 107.386719 157.863281 107.527344 157.601562 107.527344 Z M 134.210938 106.0625 L 157.179688 106.0625 L 168.664062 86.105469 L 157.179688 66.152344 L 134.210938 66.152344 L 122.726562 86.105469 Z M 134.210938 106.0625 " fill-opacity="1" fill-rule="nonzero"/></g><path fill="#000000" d="M 118.550781 130.148438 L 94.738281 130.148438 C 94.476562 130.148438 94.234375 130.007812 94.105469 129.78125 L 82.199219 109.09375 C 82.070312 108.867188 82.070312 108.585938 82.199219 108.359375 L 94.105469 87.671875 C 94.234375 87.445312 94.476562 87.304688 94.738281 87.304688 L 118.550781 87.304688 C 118.808594 87.304688 119.050781 87.445312 119.179688 87.671875 L 131.085938 108.359375 C 131.21875 108.585938 131.21875 108.867188 131.085938 109.09375 L 119.179688 129.78125 C 119.050781 130.007812 118.808594 130.148438 118.550781 130.148438 Z M 95.160156 128.683594 L 118.128906 128.683594 L 129.613281 108.726562 L 118.128906 88.769531 L 95.160156 88.769531 L 83.671875 108.726562 Z M 95.160156 128.683594 " fill-opacity="1" fill-rule="nonzero"/><g clip-path="url(#97c80e871b)"><path fill="#000000" d="M 118.550781 84.90625 L 94.738281 84.90625 C 94.476562 84.90625 94.234375 84.769531 94.105469 84.542969 L 82.199219 63.851562 C 82.070312 63.625 82.070312 63.347656 82.199219 63.121094 L 94.105469 42.429688 C 94.234375 42.203125 94.476562 42.066406 94.738281 42.066406 L 118.550781 42.066406 C 118.808594 42.066406 119.050781 42.203125 119.179688 42.429688 L 131.085938 63.121094 C 131.21875 63.347656 131.21875 63.625 131.085938 63.851562 L 119.179688 84.542969 C 119.050781 84.769531 118.808594 84.90625 118.550781 84.90625 Z M 95.160156 83.441406 L 118.128906 83.441406 L 129.613281 63.484375 L 118.128906 43.53125 L 95.160156 43.53125 L 83.675781 63.484375 Z M 95.160156 83.441406 " fill-opacity="1" fill-rule="nonzero"/></g><path fill="#000000" d="M 79.496094 107.527344 L 55.683594 107.527344 C 55.421875 107.527344 55.183594 107.386719 55.050781 107.160156 L 43.144531 86.472656 C 43.015625 86.246094 43.015625 85.964844 43.144531 85.738281 L 55.050781 65.050781 C 55.183594 64.824219 55.421875 64.683594 55.683594 64.683594 L 79.496094 64.683594 C 79.757812 64.683594 79.996094 64.824219 80.128906 65.050781 L 92.035156 85.738281 C 92.164062 85.964844 92.164062 86.246094 92.035156 86.472656 L 80.128906 107.160156 C 79.996094 107.386719 79.757812 107.527344 79.496094 107.527344 Z M 56.105469 106.0625 L 79.074219 106.0625 L 90.558594 86.105469 L 79.074219 66.152344 L 56.105469 66.152344 L 44.621094 86.105469 Z M 56.105469 106.0625 " fill-opacity="1" fill-rule="nonzero"/><path fill="#000000" d="M 79.496094 152.765625 L 55.683594 152.765625 C 55.421875 152.765625 55.183594 152.628906 55.050781 152.402344 L 43.144531 131.710938 C 43.015625 131.484375 43.015625 131.207031 43.144531 130.980469 L 55.050781 110.292969 C 55.183594 110.066406 55.421875 109.925781 55.683594 109.925781 L 79.496094 109.925781 C 79.757812 109.925781 79.996094 110.066406 80.128906 110.292969 L 92.035156 130.980469 C 92.164062 131.207031 92.164062 131.488281 92.035156 131.714844 L 80.128906 152.402344 C 79.996094 152.628906 79.757812 152.765625 79.496094 152.765625 Z M 56.105469 151.300781 L 79.074219 151.300781 L 90.558594 131.347656 L 79.074219 111.390625 L 56.105469 111.390625 L 44.621094 131.347656 Z M 56.105469 151.300781 " fill-opacity="1" fill-rule="nonzero"/><g clip-path="url(#8238640c52)"><path fill="#000000" d="M 118.550781 175.386719 L 94.738281 175.386719 C 94.476562 175.386719 94.234375 175.25 94.105469 175.023438 L 82.199219 154.332031 C 82.070312 154.105469 82.070312 153.828125 82.199219 153.601562 L 94.105469 132.910156 C 94.234375 132.683594 94.476562 132.546875 94.738281 132.546875 L 118.550781 132.546875 C 118.808594 132.546875 119.050781 132.683594 119.179688 132.910156 L 131.085938 153.601562 C 131.21875 153.828125 131.21875 154.105469 131.085938 154.332031 L 119.179688 175.023438 C 119.050781 175.25 118.808594 175.386719 118.550781 175.386719 Z M 95.160156 173.921875 L 118.128906 173.921875 L 129.613281 153.964844 L 118.128906 134.011719 L 95.160156 134.011719 L 83.671875 153.964844 Z M 95.160156 173.921875 " fill-opacity="1" fill-rule="nonzero"/></g><g clip-path="url(#023ca35328)"><path fill="#000000" d="M 157.601562 152.765625 L 133.789062 152.765625 C 133.527344 152.765625 133.289062 152.628906 133.15625 152.402344 L 121.253906 131.710938 C 121.121094 131.484375 121.121094 131.207031 121.253906 130.980469 L 133.15625 110.292969 C 133.289062 110.066406 133.527344 109.925781 133.789062 109.925781 L 157.601562 109.925781 C 157.863281 109.925781 158.105469 110.066406 158.234375 110.292969 L 170.140625 130.980469 C 170.269531 131.207031 170.269531 131.484375 170.140625 131.710938 L 158.234375 152.402344 C 158.105469 152.628906 157.863281 152.765625 157.601562 152.765625 Z M 134.210938 151.300781 L 157.179688 151.300781 L 168.664062 131.347656 L 157.179688 111.390625 L 134.210938 111.390625 L 122.726562 131.347656 Z M 134.210938 151.300781 " fill-opacity="1" fill-rule="nonzero"/></g></svg>