<svg xmlns="http://www.w3.org/2000/svg" xmlns:xlink="http://www.w3.org/1999/xlink" width="285" zoomAndPan="magnify" viewBox="0 0 213.75 213.75" height="285" preserveAspectRatio="xMidYMid meet" version="1.0"><defs><clipPath id="dbf7f63a3a"><path d="M 0 0 L 213.5 0 L 213.5 213.5 L 0 213.5 Z M 0 0 " clip-rule="nonzero"/></clipPath><clipPath id="50e8ce7bc1"><path d="M 47 36.871094 L 183 36.871094 L 183 172.464844 L 47 172.464844 Z M 47 36.871094 " clip-rule="nonzero"/></clipPath></defs><g clip-path="url(#dbf7f63a3a)"><path fill="#fcfcfc" d="M 106.714844 0 C 47.871094 0 0 47.875 0 106.714844 C 0 165.558594 47.871094 213.429688 106.714844 213.429688 C 165.554688 213.429688 213.429688 165.558594 213.429688 106.714844 C 213.429688 47.875 165.554688 0 106.714844 0 Z M 106.714844 210.648438 C 49.40625 210.648438 2.78125 164.023438 2.78125 106.71875 C 2.78125 49.40625 49.40625 2.785156 106.714844 2.785156 C 164.023438 2.785156 210.648438 49.410156 210.648438 106.71875 C 210.648438 164.023438 164.023438 210.648438 106.714844 210.648438 Z M 106.714844 210.648438 " fill-opacity="1" fill-rule="nonzero"/></g><path fill="#fcfcfc" d="M 106.714844 8.332031 C 52.464844 8.332031 8.332031 52.46875 8.332031 106.714844 C 8.332031 160.964844 52.464844 205.101562 106.714844 205.101562 C 160.964844 205.101562 205.097656 160.964844 205.097656 106.714844 C 205.097656 52.46875 160.964844 8.332031 106.714844 8.332031 Z M 106.714844 8.332031 " fill-opacity="1" fill-rule="nonzero"/><g clip-path="url(#50e8ce7bc1)"><path fill="#4a4a48" d="M 65.46875 89.457031 C 65.46875 88.285156 66.417969 87.335938 67.589844 87.335938 L 121.125 87.335938 C 122.296875 87.335938 123.246094 88.285156 123.246094 89.457031 C 123.246094 90.625 122.296875 91.574219 121.125 91.574219 L 67.589844 91.574219 C 66.417969 91.574219 65.46875 90.625 65.46875 89.457031 Z M 115.417969 150.449219 L 67.589844 150.449219 C 66.417969 150.449219 65.46875 151.394531 65.46875 152.566406 C 65.46875 153.738281 66.417969 154.6875 67.589844 154.6875 L 115.417969 154.6875 C 116.589844 154.6875 117.539062 153.738281 117.539062 152.566406 C 117.539062 151.394531 116.589844 150.449219 115.417969 150.449219 Z M 67.589844 75.796875 L 106.019531 75.796875 C 107.191406 75.796875 108.140625 74.847656 108.140625 73.679688 C 108.140625 72.507812 107.191406 71.558594 106.019531 71.558594 L 67.589844 71.558594 C 66.417969 71.558594 65.46875 72.507812 65.46875 73.679688 C 65.46875 74.847656 66.417969 75.796875 67.589844 75.796875 Z M 181.375 165.546875 L 175.949219 171.136719 C 175.046875 172.066406 173.84375 172.535156 172.640625 172.535156 C 171.484375 172.535156 170.328125 172.101562 169.433594 171.238281 L 155.382812 157.601562 C 154.996094 158.0625 154.414062 158.351562 153.769531 158.351562 L 141.707031 158.351562 L 141.707031 170.414062 C 141.707031 171.585938 140.757812 172.535156 139.585938 172.535156 L 49.128906 172.535156 C 47.957031 172.535156 47.007812 171.585938 47.007812 170.414062 L 47.007812 53.175781 C 47.007812 52.003906 47.957031 51.054688 49.128906 51.054688 L 61.191406 51.054688 L 61.191406 38.992188 C 61.191406 37.820312 62.140625 36.871094 63.3125 36.871094 L 139.113281 36.871094 C 139.675781 36.871094 140.214844 37.09375 140.613281 37.492188 L 155.265625 52.148438 C 155.664062 52.546875 155.886719 53.085938 155.886719 53.648438 L 155.886719 108.328125 C 158.144531 112.496094 159.429688 117.265625 159.429688 122.328125 C 159.429688 127.953125 157.84375 133.214844 155.101562 137.691406 L 161.101562 143.578125 C 161.679688 143.3125 162.3125 143.160156 162.96875 143.152344 C 164.207031 143.144531 165.367188 143.59375 166.246094 144.449219 L 181.277344 159.03125 C 183.097656 160.800781 183.140625 163.722656 181.375 165.546875 Z M 152.597656 141.175781 C 152.03125 141.859375 151.429688 142.515625 150.804688 143.144531 L 156.074219 148.316406 L 157.929688 146.40625 Z M 155.191406 122.328125 C 155.191406 108.40625 143.863281 97.082031 129.945312 97.082031 C 116.023438 97.082031 104.699219 108.40625 104.699219 122.328125 C 104.699219 136.246094 116.023438 147.574219 129.945312 147.574219 C 143.863281 147.574219 155.191406 136.246094 155.191406 122.328125 Z M 127.050781 65.710938 L 134.46875 65.710938 L 127.050781 58.292969 Z M 141.230469 51.527344 L 148.652344 51.527344 L 141.230469 44.109375 Z M 65.429688 51.054688 L 124.929688 51.054688 C 125.492188 51.054688 126.03125 51.277344 126.429688 51.675781 L 141.085938 66.332031 C 141.480469 66.730469 141.707031 67.269531 141.707031 67.832031 L 141.707031 95.292969 C 145.5 96.949219 148.882812 99.382812 151.648438 102.390625 L 151.648438 55.765625 L 139.113281 55.765625 C 137.941406 55.765625 136.992188 54.816406 136.992188 53.648438 L 136.992188 41.113281 L 65.429688 41.113281 Z M 137.464844 156.230469 L 137.464844 150.839844 C 135.0625 151.472656 132.542969 151.8125 129.945312 151.8125 C 119.832031 151.8125 110.890625 146.691406 105.578125 138.910156 L 67.589844 138.910156 C 66.417969 138.910156 65.46875 137.960938 65.46875 136.789062 C 65.46875 135.617188 66.417969 134.667969 67.589844 134.667969 L 103.171875 134.667969 C 101.539062 131.140625 100.582031 127.242188 100.472656 123.132812 L 67.589844 123.132812 C 66.417969 123.132812 65.46875 122.183594 65.46875 121.011719 C 65.46875 119.839844 66.417969 118.890625 67.589844 118.890625 L 100.660156 118.890625 C 101.148438 114.71875 102.507812 110.8125 104.554688 107.351562 L 67.589844 107.351562 C 66.417969 107.351562 65.46875 106.40625 65.46875 105.234375 C 65.46875 104.0625 66.417969 103.113281 67.589844 103.113281 L 107.597656 103.113281 C 113.007812 96.828125 121.019531 92.84375 129.945312 92.84375 C 132.542969 92.84375 135.0625 93.179688 137.464844 93.816406 L 137.464844 69.949219 L 124.929688 69.949219 C 123.757812 69.949219 122.808594 69 122.808594 67.832031 L 122.808594 55.292969 L 51.25 55.292969 L 51.25 168.292969 L 137.464844 168.292969 Z M 151.648438 154.113281 L 151.648438 149.914062 L 147.589844 145.933594 C 145.777344 147.292969 143.804688 148.445312 141.703125 149.363281 L 141.703125 154.113281 Z M 178.324219 162.074219 L 163.296875 147.492188 C 163.210938 147.410156 163.109375 147.390625 163.039062 147.390625 C 163.039062 147.390625 163.035156 147.390625 163.035156 147.390625 C 162.960938 147.390625 162.859375 147.410156 162.773438 147.5 L 157.347656 153.089844 C 157.210938 153.230469 157.214844 153.472656 157.355469 153.609375 L 172.382812 168.195312 C 172.523438 168.332031 172.769531 168.328125 172.90625 168.1875 L 178.332031 162.59375 C 178.46875 162.453125 178.464844 162.210938 178.324219 162.074219 Z M 151.714844 122.328125 C 151.714844 134.332031 141.949219 144.097656 129.945312 144.097656 C 117.941406 144.097656 108.175781 134.332031 108.175781 122.328125 C 108.175781 110.324219 117.941406 100.558594 129.945312 100.558594 C 141.949219 100.558594 151.714844 110.324219 151.714844 122.328125 Z M 147.476562 122.328125 C 147.476562 112.660156 139.609375 104.796875 129.945312 104.796875 C 120.277344 104.796875 112.414062 112.660156 112.414062 122.328125 C 112.414062 131.992188 120.277344 139.855469 129.945312 139.855469 C 139.609375 139.855469 147.476562 131.992188 147.476562 122.328125 Z M 147.476562 122.328125 " fill-opacity="1" fill-rule="nonzero"/></g></svg>